<?xml version="1.0" encoding="utf-8" standalone="no"?>
<!DOCTYPE svg PUBLIC "-//W3C//DTD SVG 1.1//EN"
  "http://www.w3.org/Graphics/SVG/1.1/DTD/svg11.dtd">
<svg xmlns:xlink="http://www.w3.org/1999/xlink" width="460.8pt" height="345.6pt" viewBox="0 0 460.8 345.6" xmlns="http://www.w3.org/2000/svg" version="1.1">
 <metadata>
  <rdf:RDF xmlns:dc="http://purl.org/dc/elements/1.1/" xmlns:cc="http://creativecommons.org/ns#" xmlns:rdf="http://www.w3.org/1999/02/22-rdf-syntax-ns#">
   <cc:Work>
    <dc:type rdf:resource="http://purl.org/dc/dcmitype/StillImage"/>
    <dc:date>2024-05-08T15:38:20.459495</dc:date>
    <dc:format>image/svg+xml</dc:format>
    <dc:creator>
     <cc:Agent>
      <dc:title>Matplotlib v3.8.4, https://matplotlib.org/</dc:title>
     </cc:Agent>
    </dc:creator>
   </cc:Work>
  </rdf:RDF>
 </metadata>
 <defs>
  <style type="text/css">*{stroke-linejoin: round; stroke-linecap: butt}</style>
 </defs>
 <g id="figure_1">
  <g id="patch_1">
   <path d="M 0 345.6 
L 460.8 345.6 
L 460.8 0 
L 0 0 
z
" style="fill: #ffffff"/>
  </g>
  <g id="axes_1">
   <g id="patch_2">
    <path d="M 57.6 307.584 
L 414.72 307.584 
L 414.72 41.472 
L 57.6 41.472 
z
" style="fill: #ffffff"/>
   </g>
   <g id="PolyCollection_1">
    <path d="M 73.832727 295.488 
L 73.832727 295.488 
L 74.049308 295.488 
L 74.265889 295.488 
L 74.48247 295.488 
L 74.69905 295.488 
L 74.915631 295.488 
L 75.132212 295.488 
L 75.348793 295.488 
L 75.565373 295.488 
L 75.781954 295.488 
L 75.998535 295.488 
L 76.215116 295.488 
L 76.431696 295.488 
L 76.648277 295.488 
L 76.864858 295.488 
L 77.081439 295.488 
L 77.298019 295.488 
L 77.5146 295.488 
L 77.731181 295.488 
L 77.947762 295.488 
L 78.164342 295.488 
L 78.380923 295.488 
L 78.597504 295.488 
L 78.814085 295.488 
L 79.030665 295.488 
L 79.247246 295.488 
L 79.463827 295.488 
L 79.680408 295.488 
L 79.896988 295.488 
L 80.113569 295.488 
L 80.33015 295.488 
L 80.546731 295.488 
L 80.763311 295.488 
L 80.979892 295.488 
L 81.196473 295.488 
L 81.413054 295.488 
L 81.629634 295.488 
L 81.846215 295.488 
L 82.062796 295.488 
L 82.279377 295.488 
L 82.495957 295.488 
L 82.712538 295.488 
L 82.929119 295.488 
L 83.1457 295.488 
L 83.36228 295.488 
L 83.578861 295.488 
L 83.795442 295.488 
L 84.012023 295.488 
L 84.228603 295.488 
L 84.445184 295.488 
L 84.661765 295.488 
L 84.878346 295.488 
L 85.094926 295.488 
L 85.311507 295.488 
L 85.528088 295.488 
L 85.744669 295.488 
L 85.961249 295.488 
L 86.17783 295.488 
L 86.394411 295.488 
L 86.610992 295.488 
L 86.827572 295.488 
L 87.044153 295.488 
L 87.260734 295.488 
L 87.477315 295.488 
L 87.693895 295.488 
L 87.910476 295.488 
L 88.127057 295.488 
L 88.343638 295.488 
L 88.560218 295.488 
L 88.776799 295.488 
L 88.99338 295.488 
L 89.209961 295.488 
L 89.426541 295.488 
L 89.643122 295.488 
L 89.859703 295.488 
L 90.076284 295.488 
L 90.292864 295.488 
L 90.509445 295.488 
L 90.726026 295.488 
L 90.942607 295.488 
L 91.159187 295.488 
L 91.375768 295.488 
L 91.592349 295.488 
L 91.80893 295.488 
L 92.02551 295.488 
L 92.242091 295.488 
L 92.458672 295.488 
L 92.675253 295.488 
L 92.891833 295.488 
L 93.108414 295.488 
L 93.324995 295.488 
L 93.541576 295.488 
L 93.758156 295.488 
L 93.974737 295.488 
L 94.191318 295.488 
L 94.407899 295.488 
L 94.624479 295.488 
L 94.84106 295.488 
L 95.057641 295.488 
L 95.274222 295.488 
L 95.490802 295.488 
L 95.707383 295.488 
L 95.923964 295.488 
L 96.140545 295.488 
L 96.357125 295.488 
L 96.573706 295.488 
L 96.790287 295.488 
L 97.006868 295.488 
L 97.223448 295.488 
L 97.440029 295.488 
L 97.65661 295.488 
L 97.873191 295.488 
L 98.089771 295.488 
L 98.306352 295.488 
L 98.522933 295.488 
L 98.739514 295.488 
L 98.956094 295.488 
L 99.172675 295.488 
L 99.389256 295.488 
L 99.605837 295.488 
L 99.822417 295.488 
L 100.038998 295.488 
L 100.255579 295.488 
L 100.47216 295.488 
L 100.68874 295.488 
L 100.905321 295.488 
L 101.121902 295.488 
L 101.338483 295.488 
L 101.555063 295.488 
L 101.771644 295.488 
L 101.988225 295.488 
L 102.204806 295.488 
L 102.421386 295.488 
L 102.637967 295.488 
L 102.854548 295.488 
L 103.071129 295.488 
L 103.287709 295.488 
L 103.50429 295.488 
L 103.720871 295.488 
L 103.937452 295.488 
L 104.154032 295.488 
L 104.370613 295.488 
L 104.587194 295.488 
L 104.803775 295.488 
L 105.020355 295.488 
L 105.236936 295.488 
L 105.453517 295.488 
L 105.670098 295.488 
L 105.886678 295.488 
L 106.103259 295.488 
L 106.31984 295.488 
L 106.536421 295.488 
L 106.753001 295.488 
L 106.969582 295.488 
L 107.186163 295.488 
L 107.402744 295.488 
L 107.619324 295.488 
L 107.835905 295.488 
L 108.052486 295.488 
L 108.269067 295.488 
L 108.485647 295.488 
L 108.702228 295.488 
L 108.918809 295.488 
L 109.13539 295.488 
L 109.35197 295.488 
L 109.568551 295.488 
L 109.785132 295.488 
L 110.001713 295.488 
L 110.218293 295.488 
L 110.434874 295.488 
L 110.651455 295.488 
L 110.868036 295.488 
L 111.084616 295.488 
L 111.301197 295.488 
L 111.517778 295.488 
L 111.734359 295.488 
L 111.950939 295.488 
L 112.16752 295.488 
L 112.384101 295.488 
L 112.600682 295.488 
L 112.817262 295.488 
L 113.033843 295.488 
L 113.250424 295.488 
L 113.467005 295.488 
L 113.683585 295.488 
L 113.900166 295.488 
L 114.116747 295.488 
L 114.333328 295.488 
L 114.549908 295.488 
L 114.766489 295.488 
L 114.98307 295.488 
L 115.199651 295.488 
L 115.416231 295.488 
L 115.632812 295.488 
L 115.849393 295.488 
L 116.065974 295.488 
L 116.282554 295.488 
L 116.499135 295.488 
L 116.715716 295.488 
L 116.932297 295.488 
L 117.148877 295.488 
L 117.365458 295.488 
L 117.582039 295.488 
L 117.79862 295.488 
L 118.0152 295.488 
L 118.231781 295.488 
L 118.448362 295.488 
L 118.664943 295.488 
L 118.881523 295.488 
L 119.098104 295.488 
L 119.314685 295.488 
L 119.531266 295.488 
L 119.747846 295.488 
L 119.964427 295.488 
L 120.181008 295.488 
L 120.397589 295.488 
L 120.614169 295.488 
L 120.83075 295.488 
L 121.047331 295.488 
L 121.263912 295.488 
L 121.480492 295.488 
L 121.697073 295.488 
L 121.913654 295.488 
L 122.130235 295.488 
L 122.346815 295.488 
L 122.563396 295.488 
L 122.779977 295.488 
L 122.996558 295.488 
L 123.213138 295.488 
L 123.429719 295.488 
L 123.6463 295.488 
L 123.862881 295.488 
L 124.079461 295.488 
L 124.296042 295.488 
L 124.512623 295.488 
L 124.729204 295.488 
L 124.945784 295.488 
L 125.162365 295.488 
L 125.378946 295.488 
L 125.595527 295.488 
L 125.812107 295.488 
L 126.028688 295.488 
L 126.245269 295.488 
L 126.46185 295.488 
L 126.67843 295.488 
L 126.895011 295.488 
L 127.111592 295.488 
L 127.328173 295.488 
L 127.544753 295.488 
L 127.761334 295.488 
L 127.977915 295.488 
L 128.194496 295.488 
L 128.411076 295.488 
L 128.627657 295.488 
L 128.844238 295.488 
L 129.060819 295.488 
L 129.277399 295.488 
L 129.49398 295.488 
L 129.710561 295.488 
L 129.927142 295.488 
L 130.143722 295.488 
L 130.360303 295.488 
L 130.576884 295.488 
L 130.793465 295.488 
L 131.010045 295.488 
L 131.226626 295.488 
L 131.443207 295.488 
L 131.659788 295.488 
L 131.876368 295.488 
L 132.092949 295.488 
L 132.30953 295.488 
L 132.526111 295.488 
L 132.742691 295.488 
L 132.959272 295.488 
L 133.175853 295.488 
L 133.392434 295.488 
L 133.609014 295.488 
L 133.825595 295.488 
L 134.042176 295.488 
L 134.258757 295.488 
L 134.475337 295.488 
L 134.691918 295.488 
L 134.908499 295.488 
L 135.12508 295.488 
L 135.341661 295.488 
L 135.558241 295.488 
L 135.774822 295.488 
L 135.991403 295.488 
L 136.207984 295.488 
L 136.424564 295.488 
L 136.641145 295.488 
L 136.857726 295.488 
L 137.074307 295.488 
L 137.290887 295.488 
L 137.507468 295.488 
L 137.724049 295.488 
L 137.94063 295.488 
L 138.15721 295.488 
L 138.373791 295.488 
L 138.590372 295.488 
L 138.806953 295.488 
L 139.023533 295.488 
L 139.240114 295.488 
L 139.456695 295.488 
L 139.673276 295.488 
L 139.889856 295.488 
L 140.106437 295.488 
L 140.323018 295.488 
L 140.539599 295.488 
L 140.756179 295.488 
L 140.97276 295.488 
L 141.189341 295.488 
L 141.405922 295.488 
L 141.622502 295.488 
L 141.839083 295.488 
L 142.055664 295.488 
L 142.272245 295.488 
L 142.488825 295.488 
L 142.705406 295.488 
L 142.921987 295.488 
L 143.138568 295.488 
L 143.355148 295.488 
L 143.571729 295.488 
L 143.78831 295.488 
L 144.004891 295.488 
L 144.221471 295.488 
L 144.438052 295.488 
L 144.654633 295.488 
L 144.871214 295.488 
L 145.087794 295.488 
L 145.304375 295.488 
L 145.520956 295.488 
L 145.737537 295.488 
L 145.954117 295.488 
L 146.170698 295.488 
L 146.387279 295.488 
L 146.60386 295.488 
L 146.82044 295.488 
L 147.037021 295.488 
L 147.253602 295.488 
L 147.470183 295.488 
L 147.686763 295.488 
L 147.903344 295.488 
L 148.119925 295.488 
L 148.336506 295.488 
L 148.553086 295.488 
L 148.769667 295.488 
L 148.986248 295.488 
L 149.202829 295.488 
L 149.419409 295.488 
L 149.63599 295.488 
L 149.852571 295.488 
L 150.069152 295.488 
L 150.285732 295.488 
L 150.502313 295.488 
L 150.718894 295.488 
L 150.935475 295.488 
L 151.152055 295.488 
L 151.368636 295.488 
L 151.585217 295.488 
L 151.801798 295.488 
L 152.018378 295.488 
L 152.234959 295.488 
L 152.45154 295.488 
L 152.668121 295.488 
L 152.884701 295.488 
L 153.101282 295.488 
L 153.317863 295.488 
L 153.534444 295.488 
L 153.751024 295.488 
L 153.967605 295.488 
L 154.184186 295.488 
L 154.400767 295.488 
L 154.617347 295.488 
L 154.833928 295.488 
L 155.050509 295.488 
L 155.26709 295.488 
L 155.48367 295.488 
L 155.700251 295.488 
L 155.916832 295.488 
L 156.133413 295.488 
L 156.349993 295.488 
L 156.566574 295.488 
L 156.783155 295.488 
L 156.999736 295.488 
L 157.216316 295.488 
L 157.432897 295.488 
L 157.649478 295.488 
L 157.866059 295.488 
L 158.082639 295.488 
L 158.29922 295.488 
L 158.515801 295.488 
L 158.732382 295.488 
L 158.948962 295.488 
L 159.165543 295.488 
L 159.382124 295.488 
L 159.598705 295.488 
L 159.815285 295.488 
L 160.031866 295.488 
L 160.248447 295.488 
L 160.465028 295.488 
L 160.681608 295.488 
L 160.898189 295.488 
L 161.11477 295.488 
L 161.331351 295.488 
L 161.547931 295.488 
L 161.764512 295.488 
L 161.981093 295.488 
L 162.197674 295.488 
L 162.414254 295.488 
L 162.630835 295.488 
L 162.847416 295.488 
L 163.063997 295.488 
L 163.280577 295.488 
L 163.497158 295.488 
L 163.713739 295.488 
L 163.93032 295.488 
L 164.1469 295.488 
L 164.363481 295.488 
L 164.580062 295.488 
L 164.796643 295.488 
L 165.013223 295.488 
L 165.229804 295.488 
L 165.446385 295.488 
L 165.662966 295.488 
L 165.879546 295.488 
L 166.096127 295.488 
L 166.312708 295.488 
L 166.529289 295.488 
L 166.745869 295.488 
L 166.96245 295.488 
L 167.179031 295.488 
L 167.395612 295.488 
L 167.612192 295.488 
L 167.828773 295.488 
L 168.045354 295.488 
L 168.261935 295.488 
L 168.478515 295.488 
L 168.695096 295.488 
L 168.911677 295.488 
L 169.128258 295.488 
L 169.344838 295.488 
L 169.561419 295.488 
L 169.778 295.488 
L 169.994581 295.488 
L 170.211161 295.488 
L 170.427742 295.488 
L 170.644323 295.488 
L 170.860904 295.488 
L 171.077484 295.488 
L 171.294065 295.488 
L 171.510646 295.488 
L 171.727227 295.488 
L 171.943807 295.488 
L 172.160388 295.488 
L 172.376969 295.488 
L 172.59355 295.488 
L 172.81013 295.488 
L 173.026711 295.488 
L 173.243292 295.488 
L 173.459873 295.488 
L 173.676453 295.488 
L 173.893034 295.488 
L 174.109615 295.488 
L 174.326196 295.488 
L 174.542776 295.488 
L 174.759357 295.488 
L 174.975938 295.488 
L 175.192519 295.488 
L 175.409099 295.488 
L 175.62568 295.488 
L 175.842261 295.488 
L 176.058842 295.488 
L 176.275422 295.488 
L 176.492003 295.488 
L 176.708584 295.488 
L 176.925165 295.488 
L 177.141745 295.488 
L 177.358326 295.488 
L 177.574907 295.488 
L 177.791488 295.488 
L 178.008068 295.488 
L 178.224649 295.488 
L 178.44123 295.488 
L 178.657811 295.488 
L 178.874391 295.488 
L 179.090972 295.488 
L 179.307553 295.488 
L 179.524134 295.488 
L 179.740714 295.488 
L 179.957295 295.488 
L 180.173876 295.488 
L 180.390457 295.488 
L 180.607037 295.488 
L 180.823618 295.488 
L 181.040199 295.488 
L 181.25678 295.488 
L 181.47336 295.488 
L 181.689941 295.488 
L 181.906522 295.488 
L 182.123103 295.488 
L 182.339683 295.488 
L 182.556264 295.488 
L 182.772845 295.488 
L 182.989426 295.488 
L 183.206006 295.488 
L 183.422587 295.488 
L 183.639168 295.488 
L 183.855749 295.488 
L 184.072329 295.488 
L 184.28891 295.488 
L 184.505491 295.488 
L 184.722072 295.488 
L 184.938652 295.488 
L 185.155233 295.488 
L 185.371814 295.488 
L 185.588395 295.488 
L 185.804975 295.488 
L 186.021556 295.488 
L 186.238137 295.488 
L 186.454718 295.488 
L 186.671298 295.488 
L 186.887879 295.488 
L 187.10446 295.488 
L 187.321041 295.488 
L 187.537621 295.488 
L 187.754202 295.488 
L 187.970783 295.488 
L 188.187364 295.488 
L 188.403944 295.488 
L 188.620525 295.488 
L 188.837106 295.488 
L 189.053687 295.488 
L 189.270267 295.488 
L 189.486848 295.488 
L 189.703429 295.488 
L 189.92001 295.488 
L 190.13659 295.488 
L 190.353171 295.488 
L 190.569752 295.488 
L 190.786333 295.488 
L 191.002913 295.488 
L 191.219494 295.488 
L 191.436075 295.488 
L 191.652656 295.488 
L 191.869236 295.488 
L 192.085817 295.488 
L 192.302398 295.488 
L 192.518979 295.488 
L 192.735559 295.488 
L 192.95214 295.488 
L 193.168721 295.488 
L 193.385302 295.488 
L 193.601882 295.488 
L 193.818463 295.488 
L 194.035044 295.488 
L 194.251625 295.488 
L 194.468205 295.488 
L 194.684786 295.488 
L 194.901367 295.488 
L 195.117948 295.488 
L 195.334528 295.488 
L 195.551109 295.488 
L 195.76769 295.488 
L 195.984271 295.488 
L 196.200851 295.488 
L 196.417432 295.488 
L 196.634013 295.488 
L 196.850594 295.488 
L 197.067174 295.488 
L 197.283755 295.488 
L 197.500336 295.488 
L 197.716917 295.488 
L 197.933497 295.488 
L 198.150078 295.488 
L 198.366659 295.488 
L 198.58324 295.488 
L 198.79982 295.488 
L 199.016401 295.488 
L 199.232982 295.488 
L 199.449563 295.488 
L 199.666143 295.488 
L 199.882724 295.488 
L 200.099305 295.488 
L 200.315886 295.488 
L 200.532466 295.488 
L 200.749047 295.488 
L 200.965628 295.488 
L 201.182209 295.488 
L 201.398789 295.488 
L 201.61537 295.488 
L 201.831951 295.488 
L 202.048532 295.488 
L 202.265112 295.488 
L 202.481693 295.488 
L 202.698274 295.488 
L 202.914855 295.488 
L 203.131436 295.488 
L 203.348016 295.488 
L 203.564597 295.488 
L 203.781178 295.488 
L 203.997759 295.488 
L 204.214339 295.488 
L 204.43092 295.488 
L 204.647501 295.488 
L 204.864082 295.488 
L 205.080662 295.488 
L 205.297243 295.488 
L 205.513824 295.488 
L 205.730405 295.488 
L 205.946985 295.488 
L 206.163566 295.488 
L 206.380147 295.488 
L 206.596728 295.488 
L 206.813308 295.488 
L 207.029889 295.488 
L 207.24647 295.488 
L 207.463051 295.488 
L 207.679631 295.488 
L 207.896212 295.488 
L 208.112793 295.488 
L 208.329374 295.488 
L 208.545954 295.488 
L 208.762535 295.488 
L 208.979116 295.488 
L 209.195697 295.488 
L 209.412277 295.488 
L 209.628858 295.488 
L 209.845439 295.488 
L 210.06202 295.488 
L 210.2786 295.488 
L 210.495181 295.488 
L 210.711762 295.488 
L 210.928343 295.488 
L 211.144923 295.488 
L 211.361504 295.488 
L 211.578085 295.488 
L 211.794666 295.488 
L 212.011246 295.488 
L 212.227827 295.488 
L 212.444408 295.488 
L 212.660989 295.488 
L 212.877569 295.488 
L 213.09415 295.488 
L 213.310731 295.488 
L 213.527312 295.488 
L 213.743892 295.488 
L 213.960473 295.488 
L 214.177054 295.488 
L 214.393635 295.488 
L 214.610215 295.488 
L 214.826796 295.488 
L 215.043377 295.488 
L 215.259958 295.488 
L 215.476538 295.488 
L 215.693119 295.488 
L 215.9097 295.488 
L 216.126281 295.488 
L 216.342861 295.488 
L 216.559442 295.488 
L 216.776023 295.488 
L 216.992604 295.488 
L 217.209184 295.488 
L 217.425765 295.488 
L 217.642346 295.488 
L 217.858927 295.488 
L 218.075507 295.488 
L 218.292088 295.488 
L 218.508669 295.488 
L 218.72525 295.488 
L 218.94183 295.488 
L 219.158411 295.488 
L 219.374992 295.488 
L 219.591573 295.488 
L 219.808153 295.488 
L 220.024734 295.488 
L 220.241315 295.488 
L 220.457896 295.488 
L 220.674476 295.488 
L 220.891057 295.488 
L 221.107638 295.488 
L 221.324219 295.488 
L 221.540799 295.488 
L 221.75738 295.488 
L 221.973961 295.488 
L 222.190542 295.488 
L 222.407122 295.488 
L 222.623703 295.488 
L 222.840284 295.488 
L 223.056865 295.488 
L 223.273445 295.488 
L 223.490026 295.488 
L 223.706607 295.488 
L 223.923188 295.488 
L 224.139768 295.488 
L 224.356349 295.488 
L 224.57293 295.488 
L 224.789511 295.488 
L 225.006091 295.488 
L 225.222672 295.488 
L 225.439253 295.488 
L 225.655834 295.488 
L 225.872414 295.488 
L 226.088995 295.488 
L 226.305576 295.488 
L 226.522157 295.488 
L 226.738737 295.488 
L 226.955318 295.488 
L 227.171899 295.488 
L 227.38848 295.488 
L 227.60506 295.488 
L 227.821641 295.488 
L 228.038222 295.488 
L 228.254803 295.488 
L 228.471383 295.488 
L 228.687964 295.488 
L 228.904545 295.488 
L 229.121126 295.488 
L 229.337706 295.488 
L 229.554287 295.488 
L 229.770868 295.488 
L 229.987449 295.488 
L 230.204029 295.488 
L 230.42061 295.488 
L 230.637191 295.488 
L 230.853772 295.488 
L 231.070352 295.488 
L 231.286933 295.488 
L 231.503514 295.488 
L 231.720095 295.488 
L 231.936675 295.488 
L 232.153256 295.488 
L 232.369837 295.488 
L 232.586418 295.488 
L 232.802998 295.488 
L 233.019579 295.488 
L 233.23616 295.488 
L 233.452741 295.488 
L 233.669321 295.488 
L 233.885902 295.488 
L 234.102483 295.488 
L 234.319064 295.488 
L 234.535644 295.488 
L 234.752225 295.488 
L 234.968806 295.488 
L 235.185387 295.488 
L 235.401967 295.488 
L 235.618548 295.488 
L 235.835129 295.488 
L 236.05171 295.488 
L 236.26829 295.488 
L 236.484871 295.488 
L 236.701452 295.488 
L 236.918033 295.488 
L 237.134613 295.488 
L 237.351194 295.488 
L 237.567775 295.488 
L 237.784356 295.488 
L 238.000936 295.488 
L 238.217517 295.488 
L 238.434098 295.488 
L 238.650679 295.488 
L 238.867259 295.488 
L 239.08384 295.488 
L 239.300421 295.488 
L 239.517002 295.488 
L 239.733582 295.488 
L 239.950163 295.488 
L 240.166744 295.488 
L 240.383325 295.488 
L 240.599905 295.488 
L 240.816486 295.488 
L 241.033067 295.488 
L 241.249648 295.488 
L 241.466228 295.488 
L 241.682809 295.488 
L 241.89939 295.488 
L 242.115971 295.488 
L 242.332551 295.488 
L 242.549132 295.488 
L 242.765713 295.488 
L 242.982294 295.488 
L 243.198874 295.488 
L 243.415455 295.488 
L 243.632036 295.488 
L 243.848617 295.488 
L 244.065197 295.488 
L 244.281778 295.488 
L 244.498359 295.488 
L 244.71494 295.488 
L 244.93152 295.488 
L 245.148101 295.488 
L 245.364682 295.488 
L 245.581263 295.488 
L 245.797843 295.488 
L 246.014424 295.488 
L 246.231005 295.488 
L 246.447586 295.488 
L 246.664166 295.488 
L 246.880747 295.488 
L 247.097328 295.488 
L 247.313909 295.488 
L 247.530489 295.488 
L 247.74707 295.488 
L 247.963651 295.488 
L 248.180232 295.488 
L 248.396812 295.488 
L 248.613393 295.488 
L 248.829974 295.488 
L 249.046555 295.488 
L 249.263135 295.488 
L 249.479716 295.488 
L 249.696297 295.488 
L 249.912878 295.488 
L 250.129458 295.488 
L 250.346039 295.488 
L 250.56262 295.488 
L 250.779201 295.488 
L 250.995781 295.488 
L 251.212362 295.488 
L 251.428943 295.488 
L 251.645524 295.488 
L 251.862104 295.488 
L 252.078685 295.488 
L 252.295266 295.488 
L 252.511847 295.488 
L 252.728427 295.488 
L 252.945008 295.488 
L 253.161589 295.488 
L 253.37817 295.488 
L 253.59475 295.488 
L 253.811331 295.488 
L 254.027912 295.488 
L 254.244493 295.488 
L 254.461073 295.488 
L 254.677654 295.488 
L 254.894235 295.488 
L 255.110816 295.488 
L 255.327396 295.488 
L 255.543977 295.488 
L 255.760558 295.488 
L 255.977139 295.488 
L 256.193719 295.488 
L 256.4103 295.488 
L 256.626881 295.488 
L 256.843462 295.488 
L 257.060042 295.488 
L 257.276623 295.488 
L 257.493204 295.488 
L 257.709785 295.488 
L 257.926365 295.488 
L 258.142946 295.488 
L 258.359527 295.488 
L 258.576108 295.488 
L 258.792688 295.488 
L 259.009269 295.488 
L 259.22585 295.488 
L 259.442431 295.488 
L 259.659011 295.488 
L 259.875592 295.488 
L 260.092173 295.488 
L 260.308754 295.488 
L 260.525334 295.488 
L 260.741915 295.488 
L 260.958496 295.488 
L 261.175077 295.488 
L 261.391657 295.488 
L 261.608238 295.488 
L 261.824819 295.488 
L 262.0414 295.488 
L 262.25798 295.488 
L 262.474561 295.488 
L 262.691142 295.488 
L 262.907723 295.488 
L 263.124303 295.488 
L 263.340884 295.488 
L 263.557465 295.488 
L 263.774046 295.488 
L 263.990626 295.488 
L 264.207207 295.488 
L 264.423788 295.488 
L 264.640369 295.488 
L 264.856949 295.488 
L 265.07353 295.488 
L 265.290111 295.488 
L 265.506692 295.488 
L 265.723272 295.488 
L 265.939853 295.488 
L 266.156434 295.488 
L 266.373015 295.488 
L 266.589595 295.488 
L 266.806176 295.488 
L 267.022757 295.488 
L 267.239338 295.488 
L 267.455918 295.488 
L 267.672499 295.488 
L 267.88908 295.488 
L 268.105661 295.488 
L 268.322241 295.488 
L 268.538822 295.488 
L 268.755403 295.488 
L 268.971984 295.488 
L 269.188564 295.488 
L 269.405145 295.488 
L 269.621726 295.488 
L 269.838307 295.488 
L 270.054888 295.488 
L 270.271468 295.488 
L 270.488049 295.488 
L 270.70463 295.488 
L 270.921211 295.488 
L 271.137791 295.488 
L 271.354372 295.488 
L 271.570953 295.488 
L 271.787534 295.488 
L 272.004114 295.488 
L 272.220695 295.488 
L 272.437276 295.488 
L 272.653857 295.488 
L 272.870437 295.488 
L 273.087018 295.488 
L 273.303599 295.488 
L 273.52018 295.488 
L 273.73676 295.488 
L 273.953341 295.488 
L 274.169922 295.488 
L 274.386503 295.488 
L 274.603083 295.488 
L 274.819664 295.488 
L 275.036245 295.488 
L 275.252826 295.488 
L 275.469406 295.488 
L 275.685987 295.488 
L 275.902568 295.488 
L 276.119149 295.488 
L 276.335729 295.488 
L 276.55231 295.488 
L 276.768891 295.488 
L 276.985472 295.488 
L 277.202052 295.488 
L 277.418633 295.488 
L 277.635214 295.488 
L 277.851795 295.488 
L 278.068375 295.488 
L 278.284956 295.488 
L 278.501537 295.488 
L 278.718118 295.488 
L 278.934698 295.488 
L 279.151279 295.488 
L 279.36786 295.488 
L 279.584441 295.488 
L 279.801021 295.488 
L 280.017602 295.488 
L 280.234183 295.488 
L 280.450764 295.488 
L 280.667344 295.488 
L 280.883925 295.488 
L 281.100506 295.488 
L 281.317087 295.488 
L 281.533667 295.488 
L 281.750248 295.488 
L 281.966829 295.488 
L 282.18341 295.488 
L 282.39999 295.488 
L 282.616571 295.488 
L 282.833152 295.488 
L 283.049733 295.488 
L 283.266313 295.488 
L 283.482894 295.488 
L 283.699475 295.488 
L 283.916056 295.488 
L 284.132636 295.488 
L 284.349217 295.488 
L 284.565798 295.488 
L 284.782379 295.488 
L 284.998959 295.488 
L 285.21554 295.488 
L 285.432121 295.488 
L 285.648702 295.488 
L 285.865282 295.488 
L 286.081863 295.488 
L 286.298444 295.488 
L 286.515025 295.488 
L 286.731605 295.488 
L 286.948186 295.488 
L 287.164767 295.488 
L 287.381348 295.488 
L 287.597928 295.488 
L 287.814509 295.488 
L 288.03109 295.488 
L 288.247671 295.488 
L 288.464251 295.488 
L 288.680832 295.488 
L 288.897413 295.488 
L 289.113994 295.488 
L 289.330574 295.488 
L 289.547155 295.488 
L 289.763736 295.488 
L 289.980317 295.488 
L 290.196897 295.488 
L 290.413478 295.488 
L 290.630059 295.488 
L 290.84664 295.488 
L 291.06322 295.488 
L 291.279801 295.488 
L 291.496382 295.488 
L 291.712963 295.488 
L 291.929543 295.488 
L 292.146124 295.488 
L 292.362705 295.488 
L 292.579286 295.488 
L 292.795866 295.488 
L 293.012447 295.488 
L 293.229028 295.488 
L 293.445609 295.488 
L 293.662189 295.488 
L 293.87877 295.488 
L 294.095351 295.488 
L 294.311932 295.488 
L 294.528512 295.488 
L 294.745093 295.488 
L 294.961674 295.488 
L 295.178255 295.488 
L 295.394835 295.488 
L 295.611416 295.488 
L 295.827997 295.488 
L 296.044578 295.488 
L 296.261158 295.488 
L 296.477739 295.488 
L 296.69432 295.488 
L 296.910901 295.488 
L 297.127481 295.488 
L 297.344062 295.488 
L 297.560643 295.488 
L 297.777224 295.488 
L 297.993804 295.488 
L 298.210385 295.488 
L 298.426966 295.488 
L 298.643547 295.488 
L 298.860127 295.488 
L 299.076708 295.488 
L 299.293289 295.488 
L 299.50987 295.488 
L 299.72645 295.488 
L 299.943031 295.488 
L 300.159612 295.488 
L 300.376193 295.488 
L 300.592773 295.488 
L 300.809354 295.488 
L 301.025935 295.488 
L 301.242516 295.488 
L 301.459096 295.488 
L 301.675677 295.488 
L 301.892258 295.488 
L 302.108839 295.488 
L 302.325419 295.488 
L 302.542 295.488 
L 302.758581 295.488 
L 302.975162 295.488 
L 303.191742 295.488 
L 303.408323 295.488 
L 303.624904 295.488 
L 303.841485 295.488 
L 304.058065 295.488 
L 304.274646 295.488 
L 304.491227 295.488 
L 304.707808 295.488 
L 304.924388 295.488 
L 305.140969 295.488 
L 305.35755 295.488 
L 305.574131 295.488 
L 305.790711 295.488 
L 306.007292 295.488 
L 306.223873 295.488 
L 306.440454 295.488 
L 306.657034 295.488 
L 306.873615 295.488 
L 307.090196 295.488 
L 307.306777 295.488 
L 307.523357 295.488 
L 307.739938 295.488 
L 307.956519 295.488 
L 308.1731 295.488 
L 308.38968 295.488 
L 308.606261 295.488 
L 308.822842 295.488 
L 309.039423 295.488 
L 309.256003 295.488 
L 309.472584 295.488 
L 309.689165 295.488 
L 309.905746 295.488 
L 310.122326 295.488 
L 310.338907 295.488 
L 310.555488 295.488 
L 310.772069 295.488 
L 310.988649 295.488 
L 311.20523 295.488 
L 311.421811 295.488 
L 311.638392 295.488 
L 311.854972 295.488 
L 312.071553 295.488 
L 312.288134 295.488 
L 312.504715 295.488 
L 312.721295 295.488 
L 312.937876 295.488 
L 313.154457 295.488 
L 313.371038 295.488 
L 313.587618 295.488 
L 313.804199 295.488 
L 314.02078 295.488 
L 314.237361 295.488 
L 314.453941 295.488 
L 314.670522 295.488 
L 314.887103 295.488 
L 315.103684 295.488 
L 315.320264 295.488 
L 315.536845 295.488 
L 315.753426 295.488 
L 315.970007 295.488 
L 316.186587 295.488 
L 316.403168 295.488 
L 316.619749 295.488 
L 316.83633 295.488 
L 317.05291 295.488 
L 317.269491 295.488 
L 317.486072 295.488 
L 317.702653 295.488 
L 317.919233 295.488 
L 318.135814 295.488 
L 318.352395 295.488 
L 318.568976 295.488 
L 318.785556 295.488 
L 319.002137 295.488 
L 319.218718 295.488 
L 319.435299 295.488 
L 319.651879 295.488 
L 319.86846 295.488 
L 320.085041 295.488 
L 320.301622 295.488 
L 320.518202 295.488 
L 320.734783 295.488 
L 320.951364 295.488 
L 321.167945 295.488 
L 321.384525 295.488 
L 321.601106 295.488 
L 321.817687 295.488 
L 322.034268 295.488 
L 322.250848 295.488 
L 322.467429 295.488 
L 322.68401 295.488 
L 322.900591 295.488 
L 323.117171 295.488 
L 323.333752 295.488 
L 323.550333 295.488 
L 323.766914 295.488 
L 323.983494 295.488 
L 324.200075 295.488 
L 324.416656 295.488 
L 324.633237 295.488 
L 324.849817 295.488 
L 325.066398 295.488 
L 325.282979 295.488 
L 325.49956 295.488 
L 325.71614 295.488 
L 325.932721 295.488 
L 326.149302 295.488 
L 326.365883 295.488 
L 326.582463 295.488 
L 326.799044 295.488 
L 327.015625 295.488 
L 327.232206 295.488 
L 327.448786 295.488 
L 327.665367 295.488 
L 327.881948 295.488 
L 328.098529 295.488 
L 328.315109 295.488 
L 328.53169 295.488 
L 328.748271 295.488 
L 328.964852 295.488 
L 329.181432 295.488 
L 329.398013 295.488 
L 329.614594 295.488 
L 329.831175 295.488 
L 330.047755 295.488 
L 330.264336 295.488 
L 330.480917 295.488 
L 330.697498 295.488 
L 330.914078 295.488 
L 331.130659 295.488 
L 331.34724 295.488 
L 331.563821 295.488 
L 331.780401 295.488 
L 331.996982 295.488 
L 332.213563 295.488 
L 332.430144 295.488 
L 332.646724 295.488 
L 332.863305 295.488 
L 333.079886 295.488 
L 333.296467 295.488 
L 333.513047 295.488 
L 333.729628 295.488 
L 333.946209 295.488 
L 334.16279 295.488 
L 334.37937 295.488 
L 334.595951 295.488 
L 334.812532 295.488 
L 335.029113 295.488 
L 335.245693 295.488 
L 335.462274 295.488 
L 335.678855 295.488 
L 335.895436 295.488 
L 336.112016 295.488 
L 336.328597 295.488 
L 336.545178 295.488 
L 336.761759 295.488 
L 336.978339 295.488 
L 337.19492 295.488 
L 337.411501 295.488 
L 337.628082 295.488 
L 337.844663 295.488 
L 338.061243 295.488 
L 338.277824 295.488 
L 338.494405 295.488 
L 338.710986 295.488 
L 338.927566 295.488 
L 339.144147 295.488 
L 339.360728 295.488 
L 339.577309 295.488 
L 339.793889 295.488 
L 340.01047 295.488 
L 340.227051 295.488 
L 340.443632 295.488 
L 340.660212 295.488 
L 340.876793 295.488 
L 341.093374 295.488 
L 341.309955 295.488 
L 341.526535 295.488 
L 341.743116 295.488 
L 341.959697 295.488 
L 342.176278 295.488 
L 342.392858 295.488 
L 342.609439 295.488 
L 342.82602 295.488 
L 343.042601 295.488 
L 343.259181 295.488 
L 343.475762 295.488 
L 343.692343 295.488 
L 343.908924 295.488 
L 344.125504 295.488 
L 344.342085 295.488 
L 344.558666 295.488 
L 344.775247 295.488 
L 344.991827 295.488 
L 345.208408 295.488 
L 345.424989 295.488 
L 345.64157 295.488 
L 345.85815 295.488 
L 346.074731 295.488 
L 346.291312 295.488 
L 346.507893 295.488 
L 346.724473 295.488 
L 346.941054 295.488 
L 347.157635 295.488 
L 347.374216 295.488 
L 347.590796 295.488 
L 347.807377 295.488 
L 348.023958 295.488 
L 348.240539 295.488 
L 348.457119 295.488 
L 348.6737 295.488 
L 348.890281 295.488 
L 349.106862 295.488 
L 349.323442 295.488 
L 349.540023 295.488 
L 349.756604 295.488 
L 349.973185 295.488 
L 350.189765 295.488 
L 350.406346 295.488 
L 350.622927 295.488 
L 350.839508 295.488 
L 351.056088 295.488 
L 351.272669 295.488 
L 351.48925 295.488 
L 351.705831 295.488 
L 351.922411 295.488 
L 352.138992 295.488 
L 352.355573 295.488 
L 352.572154 295.488 
L 352.788734 295.488 
L 353.005315 295.488 
L 353.221896 295.488 
L 353.438477 295.488 
L 353.655057 295.488 
L 353.871638 295.488 
L 354.088219 295.488 
L 354.3048 295.488 
L 354.52138 295.488 
L 354.737961 295.488 
L 354.954542 295.488 
L 355.171123 295.488 
L 355.387703 295.488 
L 355.604284 295.488 
L 355.820865 295.488 
L 356.037446 295.488 
L 356.254026 295.488 
L 356.470607 295.488 
L 356.687188 295.488 
L 356.903769 295.488 
L 357.120349 295.488 
L 357.33693 295.488 
L 357.553511 295.488 
L 357.770092 295.488 
L 357.986672 295.488 
L 358.203253 295.488 
L 358.419834 295.488 
L 358.636415 295.488 
L 358.852995 295.488 
L 359.069576 295.488 
L 359.286157 295.488 
L 359.502738 295.488 
L 359.719318 295.488 
L 359.935899 295.488 
L 360.15248 295.488 
L 360.369061 295.488 
L 360.585641 295.488 
L 360.802222 295.488 
L 361.018803 295.488 
L 361.235384 295.488 
L 361.451964 295.488 
L 361.668545 295.488 
L 361.885126 295.488 
L 362.101707 295.488 
L 362.318287 295.488 
L 362.534868 295.488 
L 362.751449 295.488 
L 362.96803 295.488 
L 363.18461 295.488 
L 363.401191 295.488 
L 363.617772 295.488 
L 363.834353 295.488 
L 364.050933 295.488 
L 364.267514 295.488 
L 364.484095 295.488 
L 364.700676 295.488 
L 364.917256 295.488 
L 365.133837 295.488 
L 365.350418 295.488 
L 365.566999 295.488 
L 365.783579 295.488 
L 366.00016 295.488 
L 366.216741 295.488 
L 366.433322 295.488 
L 366.649902 295.488 
L 366.866483 295.488 
L 367.083064 295.488 
L 367.299645 295.488 
L 367.516225 295.488 
L 367.732806 295.488 
L 367.949387 295.488 
L 368.165968 295.488 
L 368.382548 295.488 
L 368.599129 295.488 
L 368.81571 295.488 
L 369.032291 295.488 
L 369.248871 295.488 
L 369.465452 295.488 
L 369.682033 295.488 
L 369.898614 295.488 
L 370.115194 295.488 
L 370.331775 295.488 
L 370.548356 295.488 
L 370.764937 295.488 
L 370.981517 295.488 
L 371.198098 295.488 
L 371.414679 295.488 
L 371.63126 295.488 
L 371.84784 295.488 
L 372.064421 295.488 
L 372.281002 295.488 
L 372.497583 295.488 
L 372.714163 295.488 
L 372.930744 295.488 
L 373.147325 295.488 
L 373.363906 295.488 
L 373.580486 295.488 
L 373.797067 295.488 
L 374.013648 295.488 
L 374.230229 295.488 
L 374.446809 295.488 
L 374.66339 295.488 
L 374.879971 295.488 
L 375.096552 295.488 
L 375.313132 295.488 
L 375.529713 295.488 
L 375.746294 295.488 
L 375.962875 295.488 
L 376.179455 295.488 
L 376.396036 295.488 
L 376.612617 295.488 
L 376.829198 295.488 
L 377.045778 295.488 
L 377.262359 295.488 
L 377.47894 295.488 
L 377.695521 295.488 
L 377.912101 295.488 
L 378.128682 295.488 
L 378.345263 295.488 
L 378.561844 295.488 
L 378.778424 295.488 
L 378.995005 295.488 
L 379.211586 295.488 
L 379.428167 295.488 
L 379.644747 295.488 
L 379.861328 295.488 
L 380.077909 295.488 
L 380.29449 295.488 
L 380.51107 295.488 
L 380.727651 295.488 
L 380.944232 295.488 
L 381.160813 295.488 
L 381.377393 295.488 
L 381.593974 295.488 
L 381.810555 295.488 
L 382.027136 295.488 
L 382.243716 295.488 
L 382.460297 295.488 
L 382.676878 295.488 
L 382.893459 295.488 
L 383.110039 295.488 
L 383.32662 295.488 
L 383.543201 295.488 
L 383.759782 295.488 
L 383.976362 295.488 
L 384.192943 295.488 
L 384.409524 295.488 
L 384.626105 295.488 
L 384.842685 295.488 
L 385.059266 295.488 
L 385.275847 295.488 
L 385.492428 295.488 
L 385.709008 295.488 
L 385.925589 295.488 
L 386.14217 295.488 
L 386.358751 295.488 
L 386.575331 295.488 
L 386.791912 295.488 
L 387.008493 295.488 
L 387.225074 295.488 
L 387.441654 295.488 
L 387.658235 295.488 
L 387.874816 295.488 
L 388.091397 295.488 
L 388.307977 295.488 
L 388.524558 295.488 
L 388.741139 295.488 
L 388.95772 295.488 
L 389.1743 295.488 
L 389.390881 295.488 
L 389.607462 295.488 
L 389.824043 295.488 
L 390.040623 295.488 
L 390.257204 295.488 
L 390.473785 295.488 
L 390.690366 295.488 
L 390.906946 295.488 
L 391.123527 295.488 
L 391.340108 295.488 
L 391.556689 295.488 
L 391.773269 295.488 
L 391.98985 295.488 
L 392.206431 295.488 
L 392.423012 295.488 
L 392.639592 295.488 
L 392.856173 295.488 
L 393.072754 295.488 
L 393.289335 295.488 
L 393.505915 295.488 
L 393.722496 295.488 
L 393.939077 295.488 
L 394.155658 295.488 
L 394.372238 295.488 
L 394.588819 295.488 
L 394.8054 295.488 
L 395.021981 295.488 
L 395.238561 295.488 
L 395.455142 295.488 
L 395.671723 295.488 
L 395.888304 295.488 
L 396.104884 295.488 
L 396.321465 295.488 
L 396.538046 295.488 
L 396.754627 295.488 
L 396.971207 295.488 
L 397.187788 295.488 
L 397.404369 295.488 
L 397.62095 295.488 
L 397.83753 295.488 
L 398.054111 295.488 
L 398.270692 295.488 
L 398.487273 295.488 
L 398.487273 295.488 
L 398.487273 295.488 
L 398.270692 295.488 
L 398.054111 295.488 
L 397.83753 295.488 
L 397.62095 295.488 
L 397.404369 295.488 
L 397.187788 295.488 
L 396.971207 295.488 
L 396.754627 295.488 
L 396.538046 295.488 
L 396.321465 295.488 
L 396.104884 295.488 
L 395.888304 295.488 
L 395.671723 295.488 
L 395.455142 295.488 
L 395.238561 295.488 
L 395.021981 295.488 
L 394.8054 295.488 
L 394.588819 295.488 
L 394.372238 295.488 
L 394.155658 295.488 
L 393.939077 295.488 
L 393.722496 295.488 
L 393.505915 295.488 
L 393.289335 295.488 
L 393.072754 295.488 
L 392.856173 295.488 
L 392.639592 295.488 
L 392.423012 295.488 
L 392.206431 295.488 
L 391.98985 295.488 
L 391.773269 295.488 
L 391.556689 295.488 
L 391.340108 295.488 
L 391.123527 295.488 
L 390.906946 295.488 
L 390.690366 295.488 
L 390.473785 295.488 
L 390.257204 295.488 
L 390.040623 295.488 
L 389.824043 295.488 
L 389.607462 295.488 
L 389.390881 295.488 
L 389.1743 295.488 
L 388.95772 295.488 
L 388.741139 295.488 
L 388.524558 295.488 
L 388.307977 295.488 
L 388.091397 295.488 
L 387.874816 295.488 
L 387.658235 295.488 
L 387.441654 295.488 
L 387.225074 295.488 
L 387.008493 295.488 
L 386.791912 295.488 
L 386.575331 295.488 
L 386.358751 295.488 
L 386.14217 295.488 
L 385.925589 295.488 
L 385.709008 295.488 
L 385.492428 295.488 
L 385.275847 295.488 
L 385.059266 295.488 
L 384.842685 295.488 
L 384.626105 295.488 
L 384.409524 295.488 
L 384.192943 295.488 
L 383.976362 295.488 
L 383.759782 295.488 
L 383.543201 295.488 
L 383.32662 295.488 
L 383.110039 295.488 
L 382.893459 295.488 
L 382.676878 295.488 
L 382.460297 295.488 
L 382.243716 295.488 
L 382.027136 295.488 
L 381.810555 295.488 
L 381.593974 295.488 
L 381.377393 295.488 
L 381.160813 295.488 
L 380.944232 295.488 
L 380.727651 295.488 
L 380.51107 295.488 
L 380.29449 295.488 
L 380.077909 295.488 
L 379.861328 295.488 
L 379.644747 295.488 
L 379.428167 295.488 
L 379.211586 295.488 
L 378.995005 295.488 
L 378.778424 295.488 
L 378.561844 295.488 
L 378.345263 295.488 
L 378.128682 295.488 
L 377.912101 295.488 
L 377.695521 295.488 
L 377.47894 295.488 
L 377.262359 295.488 
L 377.045778 295.488 
L 376.829198 295.488 
L 376.612617 295.488 
L 376.396036 295.488 
L 376.179455 295.488 
L 375.962875 295.488 
L 375.746294 295.488 
L 375.529713 295.488 
L 375.313132 295.488 
L 375.096552 295.488 
L 374.879971 295.488 
L 374.66339 295.488 
L 374.446809 295.488 
L 374.230229 295.488 
L 374.013648 295.488 
L 373.797067 295.488 
L 373.580486 295.488 
L 373.363906 295.488 
L 373.147325 295.488 
L 372.930744 295.488 
L 372.714163 295.488 
L 372.497583 295.488 
L 372.281002 295.488 
L 372.064421 295.488 
L 371.84784 295.488 
L 371.63126 295.488 
L 371.414679 295.488 
L 371.198098 295.488 
L 370.981517 295.488 
L 370.764937 295.488 
L 370.548356 295.488 
L 370.331775 295.488 
L 370.115194 295.488 
L 369.898614 295.488 
L 369.682033 295.488 
L 369.465452 295.488 
L 369.248871 295.488 
L 369.032291 295.488 
L 368.81571 295.488 
L 368.599129 295.488 
L 368.382548 295.488 
L 368.165968 295.488 
L 367.949387 295.488 
L 367.732806 295.488 
L 367.516225 295.488 
L 367.299645 295.488 
L 367.083064 295.488 
L 366.866483 295.488 
L 366.649902 295.488 
L 366.433322 295.488 
L 366.216741 295.488 
L 366.00016 295.488 
L 365.783579 295.488 
L 365.566999 295.488 
L 365.350418 295.488 
L 365.133837 295.488 
L 364.917256 295.488 
L 364.700676 295.488 
L 364.484095 295.488 
L 364.267514 295.488 
L 364.050933 295.488 
L 363.834353 295.488 
L 363.617772 295.488 
L 363.401191 295.488 
L 363.18461 295.488 
L 362.96803 295.488 
L 362.751449 295.488 
L 362.534868 295.488 
L 362.318287 295.488 
L 362.101707 295.488 
L 361.885126 295.488 
L 361.668545 295.488 
L 361.451964 295.488 
L 361.235384 295.488 
L 361.018803 295.488 
L 360.802222 295.488 
L 360.585641 295.488 
L 360.369061 295.488 
L 360.15248 295.488 
L 359.935899 295.488 
L 359.719318 295.488 
L 359.502738 295.488 
L 359.286157 295.488 
L 359.069576 295.488 
L 358.852995 295.488 
L 358.636415 295.488 
L 358.419834 295.488 
L 358.203253 295.488 
L 357.986672 295.488 
L 357.770092 295.488 
L 357.553511 295.488 
L 357.33693 295.488 
L 357.120349 295.488 
L 356.903769 295.488 
L 356.687188 295.488 
L 356.470607 295.488 
L 356.254026 295.488 
L 356.037446 295.488 
L 355.820865 295.488 
L 355.604284 295.488 
L 355.387703 295.488 
L 355.171123 295.488 
L 354.954542 295.488 
L 354.737961 295.488 
L 354.52138 295.488 
L 354.3048 295.488 
L 354.088219 295.488 
L 353.871638 295.488 
L 353.655057 295.488 
L 353.438477 295.488 
L 353.221896 295.488 
L 353.005315 295.488 
L 352.788734 295.488 
L 352.572154 295.488 
L 352.355573 295.488 
L 352.138992 295.488 
L 351.922411 295.488 
L 351.705831 295.488 
L 351.48925 295.488 
L 351.272669 295.488 
L 351.056088 295.488 
L 350.839508 295.488 
L 350.622927 295.488 
L 350.406346 295.488 
L 350.189765 295.488 
L 349.973185 295.488 
L 349.756604 295.488 
L 349.540023 295.488 
L 349.323442 295.488 
L 349.106862 295.488 
L 348.890281 295.488 
L 348.6737 295.488 
L 348.457119 295.488 
L 348.240539 295.488 
L 348.023958 295.488 
L 347.807377 295.488 
L 347.590796 295.488 
L 347.374216 295.488 
L 347.157635 295.488 
L 346.941054 295.488 
L 346.724473 295.488 
L 346.507893 295.488 
L 346.291312 295.488 
L 346.074731 295.488 
L 345.85815 295.488 
L 345.64157 295.488 
L 345.424989 295.488 
L 345.208408 295.488 
L 344.991827 295.488 
L 344.775247 295.488 
L 344.558666 295.488 
L 344.342085 295.488 
L 344.125504 295.488 
L 343.908924 295.488 
L 343.692343 295.488 
L 343.475762 295.488 
L 343.259181 295.488 
L 343.042601 295.488 
L 342.82602 295.488 
L 342.609439 295.488 
L 342.392858 295.488 
L 342.176278 295.488 
L 341.959697 295.488 
L 341.743116 295.488 
L 341.526535 295.488 
L 341.309955 295.488 
L 341.093374 295.488 
L 340.876793 295.488 
L 340.660212 295.488 
L 340.443632 295.488 
L 340.227051 295.488 
L 340.01047 295.488 
L 339.793889 295.488 
L 339.577309 295.488 
L 339.360728 295.488 
L 339.144147 295.488 
L 338.927566 295.488 
L 338.710986 295.488 
L 338.494405 295.488 
L 338.277824 295.488 
L 338.061243 295.488 
L 337.844663 295.488 
L 337.628082 295.488 
L 337.411501 295.488 
L 337.19492 295.488 
L 336.978339 295.488 
L 336.761759 295.488 
L 336.545178 295.488 
L 336.328597 295.488 
L 336.112016 295.488 
L 335.895436 295.488 
L 335.678855 295.488 
L 335.462274 295.488 
L 335.245693 295.488 
L 335.029113 295.488 
L 334.812532 295.488 
L 334.595951 295.488 
L 334.37937 295.488 
L 334.16279 295.488 
L 333.946209 295.488 
L 333.729628 295.488 
L 333.513047 295.488 
L 333.296467 295.488 
L 333.079886 295.488 
L 332.863305 295.488 
L 332.646724 295.488 
L 332.430144 295.488 
L 332.213563 295.488 
L 331.996982 295.488 
L 331.780401 295.488 
L 331.563821 295.488 
L 331.34724 295.488 
L 331.130659 295.488 
L 330.914078 295.488 
L 330.697498 295.488 
L 330.480917 295.488 
L 330.264336 295.488 
L 330.047755 295.488 
L 329.831175 295.488 
L 329.614594 295.488 
L 329.398013 295.488 
L 329.181432 295.488 
L 328.964852 295.488 
L 328.748271 295.488 
L 328.53169 295.488 
L 328.315109 295.488 
L 328.098529 295.488 
L 327.881948 295.488 
L 327.665367 295.488 
L 327.448786 295.488 
L 327.232206 295.488 
L 327.015625 295.488 
L 326.799044 295.488 
L 326.582463 295.488 
L 326.365883 295.488 
L 326.149302 295.488 
L 325.932721 295.488 
L 325.71614 295.488 
L 325.49956 295.488 
L 325.282979 295.488 
L 325.066398 295.488 
L 324.849817 295.488 
L 324.633237 295.488 
L 324.416656 295.488 
L 324.200075 295.488 
L 323.983494 295.488 
L 323.766914 295.488 
L 323.550333 295.488 
L 323.333752 295.488 
L 323.117171 295.488 
L 322.900591 295.488 
L 322.68401 295.488 
L 322.467429 295.488 
L 322.250848 295.488 
L 322.034268 295.488 
L 321.817687 295.488 
L 321.601106 295.488 
L 321.384525 295.488 
L 321.167945 295.488 
L 320.951364 295.488 
L 320.734783 295.488 
L 320.518202 295.488 
L 320.301622 295.488 
L 320.085041 295.488 
L 319.86846 295.488 
L 319.651879 295.488 
L 319.435299 295.488 
L 319.218718 295.488 
L 319.002137 295.488 
L 318.785556 295.488 
L 318.568976 295.488 
L 318.352395 295.488 
L 318.135814 295.488 
L 317.919233 295.488 
L 317.702653 295.488 
L 317.486072 295.488 
L 317.269491 295.488 
L 317.05291 295.488 
L 316.83633 295.488 
L 316.619749 295.488 
L 316.403168 295.488 
L 316.186587 295.488 
L 315.970007 295.488 
L 315.753426 295.488 
L 315.536845 295.488 
L 315.320264 295.488 
L 315.103684 295.488 
L 314.887103 295.488 
L 314.670522 295.488 
L 314.453941 295.488 
L 314.237361 295.488 
L 314.02078 295.488 
L 313.804199 295.488 
L 313.587618 295.488 
L 313.371038 295.488 
L 313.154457 295.488 
L 312.937876 295.488 
L 312.721295 295.488 
L 312.504715 295.488 
L 312.288134 295.488 
L 312.071553 295.488 
L 311.854972 295.488 
L 311.638392 295.488 
L 311.421811 295.488 
L 311.20523 295.488 
L 310.988649 295.488 
L 310.772069 295.488 
L 310.555488 295.488 
L 310.338907 295.488 
L 310.122326 295.488 
L 309.905746 295.488 
L 309.689165 295.488 
L 309.472584 295.488 
L 309.256003 295.488 
L 309.039423 295.488 
L 308.822842 295.488 
L 308.606261 295.488 
L 308.38968 295.488 
L 308.1731 295.488 
L 307.956519 295.488 
L 307.739938 295.488 
L 307.523357 295.488 
L 307.306777 295.488 
L 307.090196 295.488 
L 306.873615 295.488 
L 306.657034 295.488 
L 306.440454 295.488 
L 306.223873 295.488 
L 306.007292 295.488 
L 305.790711 295.488 
L 305.574131 295.488 
L 305.35755 295.488 
L 305.140969 295.488 
L 304.924388 295.488 
L 304.707808 295.488 
L 304.491227 295.488 
L 304.274646 295.488 
L 304.058065 295.488 
L 303.841485 295.488 
L 303.624904 295.488 
L 303.408323 295.488 
L 303.191742 295.488 
L 302.975162 295.488 
L 302.758581 295.488 
L 302.542 295.488 
L 302.325419 295.488 
L 302.108839 295.488 
L 301.892258 295.488 
L 301.675677 295.488 
L 301.459096 295.488 
L 301.242516 295.488 
L 301.025935 295.488 
L 300.809354 295.488 
L 300.592773 295.488 
L 300.376193 295.488 
L 300.159612 295.488 
L 299.943031 295.488 
L 299.72645 295.488 
L 299.50987 295.488 
L 299.293289 295.488 
L 299.076708 295.488 
L 298.860127 295.488 
L 298.643547 295.488 
L 298.426966 295.488 
L 298.210385 295.488 
L 297.993804 295.488 
L 297.777224 295.488 
L 297.560643 295.488 
L 297.344062 295.488 
L 297.127481 295.488 
L 296.910901 295.488 
L 296.69432 295.488 
L 296.477739 295.488 
L 296.261158 295.488 
L 296.044578 295.488 
L 295.827997 295.488 
L 295.611416 295.488 
L 295.394835 295.488 
L 295.178255 295.488 
L 294.961674 295.488 
L 294.745093 295.488 
L 294.528512 295.488 
L 294.311932 295.488 
L 294.095351 295.488 
L 293.87877 295.488 
L 293.662189 295.488 
L 293.445609 295.488 
L 293.229028 295.488 
L 293.012447 295.488 
L 292.795866 295.488 
L 292.579286 295.488 
L 292.362705 295.488 
L 292.146124 295.488 
L 291.929543 295.488 
L 291.712963 295.488 
L 291.496382 295.488 
L 291.279801 295.488 
L 291.06322 295.488 
L 290.84664 295.488 
L 290.630059 295.488 
L 290.413478 295.488 
L 290.196897 295.488 
L 289.980317 295.488 
L 289.763736 295.488 
L 289.547155 295.488 
L 289.330574 295.488 
L 289.113994 295.488 
L 288.897413 295.488 
L 288.680832 295.488 
L 288.464251 295.488 
L 288.247671 295.488 
L 288.03109 295.488 
L 287.814509 295.488 
L 287.597928 295.488 
L 287.381348 295.488 
L 287.164767 295.488 
L 286.948186 295.488 
L 286.731605 295.488 
L 286.515025 295.488 
L 286.298444 295.488 
L 286.081863 295.488 
L 285.865282 295.488 
L 285.648702 295.488 
L 285.432121 295.488 
L 285.21554 295.488 
L 284.998959 295.488 
L 284.782379 295.488 
L 284.565798 295.488 
L 284.349217 295.488 
L 284.132636 295.488 
L 283.916056 295.488 
L 283.699475 295.488 
L 283.482894 295.488 
L 283.266313 295.488 
L 283.049733 295.488 
L 282.833152 295.488 
L 282.616571 295.488 
L 282.39999 295.488 
L 282.18341 295.488 
L 281.966829 295.488 
L 281.750248 295.488 
L 281.533667 295.488 
L 281.317087 295.488 
L 281.100506 295.488 
L 280.883925 295.488 
L 280.667344 295.488 
L 280.450764 295.488 
L 280.234183 295.488 
L 280.017602 295.488 
L 279.801021 295.488 
L 279.584441 295.488 
L 279.36786 295.488 
L 279.151279 295.488 
L 278.934698 295.488 
L 278.718118 295.488 
L 278.501537 295.488 
L 278.284956 295.488 
L 278.068375 295.488 
L 277.851795 295.488 
L 277.635214 295.488 
L 277.418633 295.488 
L 277.202052 295.488 
L 276.985472 295.488 
L 276.768891 295.488 
L 276.55231 295.488 
L 276.335729 295.488 
L 276.119149 295.488 
L 275.902568 295.488 
L 275.685987 295.488 
L 275.469406 295.488 
L 275.252826 295.488 
L 275.036245 295.488 
L 274.819664 295.488 
L 274.603083 295.488 
L 274.386503 295.488 
L 274.169922 295.488 
L 273.953341 295.488 
L 273.73676 295.488 
L 273.52018 295.488 
L 273.303599 295.488 
L 273.087018 295.488 
L 272.870437 295.488 
L 272.653857 295.488 
L 272.437276 295.488 
L 272.220695 295.488 
L 272.004114 295.488 
L 271.787534 295.488 
L 271.570953 295.488 
L 271.354372 295.488 
L 271.137791 295.488 
L 270.921211 295.488 
L 270.70463 295.488 
L 270.488049 295.488 
L 270.271468 295.488 
L 270.054888 295.488 
L 269.838307 295.488 
L 269.621726 295.488 
L 269.405145 295.488 
L 269.188564 295.488 
L 268.971984 295.488 
L 268.755403 295.488 
L 268.538822 295.488 
L 268.322241 295.488 
L 268.105661 295.488 
L 267.88908 295.488 
L 267.672499 295.488 
L 267.455918 295.488 
L 267.239338 295.488 
L 267.022757 295.488 
L 266.806176 295.488 
L 266.589595 295.488 
L 266.373015 295.488 
L 266.156434 295.488 
L 265.939853 295.488 
L 265.723272 295.488 
L 265.506692 295.488 
L 265.290111 295.488 
L 265.07353 295.488 
L 264.856949 295.488 
L 264.640369 295.488 
L 264.423788 295.488 
L 264.207207 295.488 
L 263.990626 295.488 
L 263.774046 295.488 
L 263.557465 295.488 
L 263.340884 295.488 
L 263.124303 295.488 
L 262.907723 295.488 
L 262.691142 295.488 
L 262.474561 295.488 
L 262.25798 295.488 
L 262.0414 295.488 
L 261.824819 295.488 
L 261.608238 295.488 
L 261.391657 295.488 
L 261.175077 295.488 
L 260.958496 295.488 
L 260.741915 295.488 
L 260.525334 295.488 
L 260.308754 295.488 
L 260.092173 295.488 
L 259.875592 295.488 
L 259.659011 295.488 
L 259.442431 295.488 
L 259.22585 295.488 
L 259.009269 295.488 
L 258.792688 295.488 
L 258.576108 295.488 
L 258.359527 295.488 
L 258.142946 295.488 
L 257.926365 295.488 
L 257.709785 295.488 
L 257.493204 295.488 
L 257.276623 295.488 
L 257.060042 295.488 
L 256.843462 295.488 
L 256.626881 295.488 
L 256.4103 295.488 
L 256.193719 295.488 
L 255.977139 295.488 
L 255.760558 295.488 
L 255.543977 295.488 
L 255.327396 295.488 
L 255.110816 295.488 
L 254.894235 295.488 
L 254.677654 295.488 
L 254.461073 295.488 
L 254.244493 295.488 
L 254.027912 295.488 
L 253.811331 295.488 
L 253.59475 295.488 
L 253.37817 295.488 
L 253.161589 295.488 
L 252.945008 295.488 
L 252.728427 295.488 
L 252.511847 295.488 
L 252.295266 295.488 
L 252.078685 295.488 
L 251.862104 295.488 
L 251.645524 295.488 
L 251.428943 295.488 
L 251.212362 295.488 
L 250.995781 295.488 
L 250.779201 295.488 
L 250.56262 295.488 
L 250.346039 295.488 
L 250.129458 295.488 
L 249.912878 295.488 
L 249.696297 295.488 
L 249.479716 295.488 
L 249.263135 295.488 
L 249.046555 295.488 
L 248.829974 295.488 
L 248.613393 295.488 
L 248.396812 295.488 
L 248.180232 295.488 
L 247.963651 295.488 
L 247.74707 295.488 
L 247.530489 295.488 
L 247.313909 295.488 
L 247.097328 295.488 
L 246.880747 295.488 
L 246.664166 295.488 
L 246.447586 295.488 
L 246.231005 295.488 
L 246.014424 295.488 
L 245.797843 295.488 
L 245.581263 295.488 
L 245.364682 295.488 
L 245.148101 295.488 
L 244.93152 295.488 
L 244.71494 295.488 
L 244.498359 295.488 
L 244.281778 295.488 
L 244.065197 295.488 
L 243.848617 295.488 
L 243.632036 295.488 
L 243.415455 295.488 
L 243.198874 295.488 
L 242.982294 295.488 
L 242.765713 295.488 
L 242.549132 295.488 
L 242.332551 295.488 
L 242.115971 295.488 
L 241.89939 295.488 
L 241.682809 295.488 
L 241.466228 295.488 
L 241.249648 295.488 
L 241.033067 295.488 
L 240.816486 295.488 
L 240.599905 295.488 
L 240.383325 295.488 
L 240.166744 295.488 
L 239.950163 295.488 
L 239.733582 295.488 
L 239.517002 295.488 
L 239.300421 295.488 
L 239.08384 295.488 
L 238.867259 295.488 
L 238.650679 295.488 
L 238.434098 295.488 
L 238.217517 295.488 
L 238.000936 295.488 
L 237.784356 295.488 
L 237.567775 295.488 
L 237.351194 295.488 
L 237.134613 295.488 
L 236.918033 295.488 
L 236.701452 295.488 
L 236.484871 295.488 
L 236.26829 295.488 
L 236.05171 295.488 
L 235.835129 295.488 
L 235.618548 295.488 
L 235.401967 295.488 
L 235.185387 295.488 
L 234.968806 295.488 
L 234.752225 295.488 
L 234.535644 295.488 
L 234.319064 295.488 
L 234.102483 295.488 
L 233.885902 295.488 
L 233.669321 295.488 
L 233.452741 295.488 
L 233.23616 295.488 
L 233.019579 295.488 
L 232.802998 295.488 
L 232.586418 295.488 
L 232.369837 295.488 
L 232.153256 295.488 
L 231.936675 295.488 
L 231.720095 295.488 
L 231.503514 295.488 
L 231.286933 295.488 
L 231.070352 295.488 
L 230.853772 295.488 
L 230.637191 295.488 
L 230.42061 295.488 
L 230.204029 295.488 
L 229.987449 295.488 
L 229.770868 295.488 
L 229.554287 295.488 
L 229.337706 295.488 
L 229.121126 295.488 
L 228.904545 295.488 
L 228.687964 295.488 
L 228.471383 295.488 
L 228.254803 295.488 
L 228.038222 295.488 
L 227.821641 295.488 
L 227.60506 295.488 
L 227.38848 295.488 
L 227.171899 295.488 
L 226.955318 295.488 
L 226.738737 295.488 
L 226.522157 295.488 
L 226.305576 295.488 
L 226.088995 295.488 
L 225.872414 295.488 
L 225.655834 295.488 
L 225.439253 295.488 
L 225.222672 295.488 
L 225.006091 295.488 
L 224.789511 295.488 
L 224.57293 295.488 
L 224.356349 295.488 
L 224.139768 295.488 
L 223.923188 295.488 
L 223.706607 295.488 
L 223.490026 295.488 
L 223.273445 295.488 
L 223.056865 295.488 
L 222.840284 295.488 
L 222.623703 295.488 
L 222.407122 295.488 
L 222.190542 295.488 
L 221.973961 295.488 
L 221.75738 295.488 
L 221.540799 295.488 
L 221.324219 295.488 
L 221.107638 295.488 
L 220.891057 295.488 
L 220.674476 295.488 
L 220.457896 295.488 
L 220.241315 295.488 
L 220.024734 295.488 
L 219.808153 295.488 
L 219.591573 295.488 
L 219.374992 295.488 
L 219.158411 295.488 
L 218.94183 295.488 
L 218.72525 295.488 
L 218.508669 295.488 
L 218.292088 295.488 
L 218.075507 295.488 
L 217.858927 295.488 
L 217.642346 295.488 
L 217.425765 295.488 
L 217.209184 295.488 
L 216.992604 295.488 
L 216.776023 295.488 
L 216.559442 295.488 
L 216.342861 295.488 
L 216.126281 295.488 
L 215.9097 295.488 
L 215.693119 295.488 
L 215.476538 295.488 
L 215.259958 295.488 
L 215.043377 295.488 
L 214.826796 295.488 
L 214.610215 295.488 
L 214.393635 295.488 
L 214.177054 295.488 
L 213.960473 295.488 
L 213.743892 295.488 
L 213.527312 295.488 
L 213.310731 295.488 
L 213.09415 295.488 
L 212.877569 295.488 
L 212.660989 295.488 
L 212.444408 295.488 
L 212.227827 295.488 
L 212.011246 295.488 
L 211.794666 295.488 
L 211.578085 295.488 
L 211.361504 295.488 
L 211.144923 295.488 
L 210.928343 295.488 
L 210.711762 295.488 
L 210.495181 295.488 
L 210.2786 295.488 
L 210.06202 295.488 
L 209.845439 295.488 
L 209.628858 295.488 
L 209.412277 295.488 
L 209.195697 295.488 
L 208.979116 295.488 
L 208.762535 295.488 
L 208.545954 295.488 
L 208.329374 295.488 
L 208.112793 295.488 
L 207.896212 295.488 
L 207.679631 295.488 
L 207.463051 295.488 
L 207.24647 295.488 
L 207.029889 295.488 
L 206.813308 295.488 
L 206.596728 295.488 
L 206.380147 295.488 
L 206.163566 295.488 
L 205.946985 295.488 
L 205.730405 295.488 
L 205.513824 295.488 
L 205.297243 295.488 
L 205.080662 295.488 
L 204.864082 295.488 
L 204.647501 295.488 
L 204.43092 295.488 
L 204.214339 295.488 
L 203.997759 295.488 
L 203.781178 295.488 
L 203.564597 295.488 
L 203.348016 295.488 
L 203.131436 295.488 
L 202.914855 295.488 
L 202.698274 295.488 
L 202.481693 295.488 
L 202.265112 295.488 
L 202.048532 295.488 
L 201.831951 295.488 
L 201.61537 295.488 
L 201.398789 295.488 
L 201.182209 295.488 
L 200.965628 295.488 
L 200.749047 295.488 
L 200.532466 295.488 
L 200.315886 295.488 
L 200.099305 295.488 
L 199.882724 295.488 
L 199.666143 295.488 
L 199.449563 295.488 
L 199.232982 295.488 
L 199.016401 295.488 
L 198.79982 295.488 
L 198.58324 295.488 
L 198.366659 295.488 
L 198.150078 295.488 
L 197.933497 295.488 
L 197.716917 295.488 
L 197.500336 295.488 
L 197.283755 295.488 
L 197.067174 295.488 
L 196.850594 295.488 
L 196.634013 295.488 
L 196.417432 295.488 
L 196.200851 295.488 
L 195.984271 295.488 
L 195.76769 295.488 
L 195.551109 295.488 
L 195.334528 295.488 
L 195.117948 295.488 
L 194.901367 295.488 
L 194.684786 295.488 
L 194.468205 295.488 
L 194.251625 295.488 
L 194.035044 295.488 
L 193.818463 295.488 
L 193.601882 295.488 
L 193.385302 295.488 
L 193.168721 295.488 
L 192.95214 295.488 
L 192.735559 295.488 
L 192.518979 295.488 
L 192.302398 295.488 
L 192.085817 295.488 
L 191.869236 295.488 
L 191.652656 295.488 
L 191.436075 295.488 
L 191.219494 295.488 
L 191.002913 295.488 
L 190.786333 295.488 
L 190.569752 295.488 
L 190.353171 295.488 
L 190.13659 295.488 
L 189.92001 295.488 
L 189.703429 295.488 
L 189.486848 295.488 
L 189.270267 295.488 
L 189.053687 295.488 
L 188.837106 295.488 
L 188.620525 295.488 
L 188.403944 295.488 
L 188.187364 295.488 
L 187.970783 295.488 
L 187.754202 295.488 
L 187.537621 295.488 
L 187.321041 295.488 
L 187.10446 295.488 
L 186.887879 295.488 
L 186.671298 295.488 
L 186.454718 295.488 
L 186.238137 295.488 
L 186.021556 295.488 
L 185.804975 295.488 
L 185.588395 295.488 
L 185.371814 295.488 
L 185.155233 295.488 
L 184.938652 295.488 
L 184.722072 295.488 
L 184.505491 295.488 
L 184.28891 295.488 
L 184.072329 295.488 
L 183.855749 295.488 
L 183.639168 295.488 
L 183.422587 295.488 
L 183.206006 295.488 
L 182.989426 295.488 
L 182.772845 295.488 
L 182.556264 295.488 
L 182.339683 295.488 
L 182.123103 295.488 
L 181.906522 295.488 
L 181.689941 295.488 
L 181.47336 295.488 
L 181.25678 295.488 
L 181.040199 295.488 
L 180.823618 295.488 
L 180.607037 295.488 
L 180.390457 295.488 
L 180.173876 295.488 
L 179.957295 295.488 
L 179.740714 295.488 
L 179.524134 295.488 
L 179.307553 295.488 
L 179.090972 295.488 
L 178.874391 295.488 
L 178.657811 295.488 
L 178.44123 295.488 
L 178.224649 295.488 
L 178.008068 295.488 
L 177.791488 295.488 
L 177.574907 295.488 
L 177.358326 295.488 
L 177.141745 295.488 
L 176.925165 295.488 
L 176.708584 295.488 
L 176.492003 295.488 
L 176.275422 295.488 
L 176.058842 295.488 
L 175.842261 295.488 
L 175.62568 295.488 
L 175.409099 295.488 
L 175.192519 295.488 
L 174.975938 295.488 
L 174.759357 295.488 
L 174.542776 295.488 
L 174.326196 295.488 
L 174.109615 295.488 
L 173.893034 295.488 
L 173.676453 295.488 
L 173.459873 295.488 
L 173.243292 295.488 
L 173.026711 295.488 
L 172.81013 295.488 
L 172.59355 295.488 
L 172.376969 295.488 
L 172.160388 295.488 
L 171.943807 295.488 
L 171.727227 295.488 
L 171.510646 295.488 
L 171.294065 295.488 
L 171.077484 295.488 
L 170.860904 295.488 
L 170.644323 295.488 
L 170.427742 295.488 
L 170.211161 295.488 
L 169.994581 295.488 
L 169.778 295.488 
L 169.561419 295.488 
L 169.344838 295.488 
L 169.128258 295.488 
L 168.911677 295.488 
L 168.695096 295.488 
L 168.478515 295.488 
L 168.261935 295.488 
L 168.045354 295.488 
L 167.828773 295.488 
L 167.612192 295.488 
L 167.395612 295.488 
L 167.179031 295.488 
L 166.96245 295.488 
L 166.745869 295.488 
L 166.529289 295.488 
L 166.312708 295.488 
L 166.096127 295.488 
L 165.879546 295.488 
L 165.662966 295.488 
L 165.446385 295.488 
L 165.229804 295.488 
L 165.013223 295.488 
L 164.796643 295.488 
L 164.580062 295.488 
L 164.363481 295.488 
L 164.1469 295.488 
L 163.93032 295.488 
L 163.713739 295.488 
L 163.497158 295.488 
L 163.280577 295.488 
L 163.063997 295.488 
L 162.847416 295.488 
L 162.630835 295.488 
L 162.414254 295.488 
L 162.197674 295.488 
L 161.981093 295.488 
L 161.764512 295.488 
L 161.547931 295.488 
L 161.331351 295.488 
L 161.11477 295.488 
L 160.898189 295.488 
L 160.681608 295.488 
L 160.465028 295.488 
L 160.248447 295.488 
L 160.031866 295.488 
L 159.815285 295.488 
L 159.598705 295.488 
L 159.382124 295.488 
L 159.165543 295.488 
L 158.948962 295.488 
L 158.732382 295.488 
L 158.515801 295.488 
L 158.29922 295.488 
L 158.082639 295.488 
L 157.866059 295.488 
L 157.649478 295.488 
L 157.432897 295.488 
L 157.216316 295.488 
L 156.999736 295.488 
L 156.783155 295.488 
L 156.566574 295.488 
L 156.349993 295.488 
L 156.133413 295.488 
L 155.916832 295.488 
L 155.700251 295.488 
L 155.48367 295.488 
L 155.26709 295.488 
L 155.050509 295.488 
L 154.833928 295.488 
L 154.617347 295.488 
L 154.400767 295.488 
L 154.184186 295.488 
L 153.967605 295.488 
L 153.751024 295.488 
L 153.534444 295.488 
L 153.317863 295.488 
L 153.101282 295.488 
L 152.884701 295.488 
L 152.668121 295.488 
L 152.45154 295.488 
L 152.234959 295.488 
L 152.018378 295.488 
L 151.801798 295.488 
L 151.585217 295.488 
L 151.368636 295.488 
L 151.152055 295.488 
L 150.935475 295.488 
L 150.718894 295.488 
L 150.502313 295.488 
L 150.285732 295.488 
L 150.069152 295.488 
L 149.852571 295.488 
L 149.63599 295.488 
L 149.419409 295.488 
L 149.202829 295.488 
L 148.986248 295.488 
L 148.769667 295.488 
L 148.553086 295.488 
L 148.336506 295.488 
L 148.119925 295.488 
L 147.903344 295.488 
L 147.686763 295.488 
L 147.470183 295.488 
L 147.253602 295.488 
L 147.037021 295.488 
L 146.82044 295.488 
L 146.60386 295.488 
L 146.387279 295.488 
L 146.170698 295.488 
L 145.954117 295.488 
L 145.737537 295.488 
L 145.520956 295.488 
L 145.304375 295.488 
L 145.087794 295.488 
L 144.871214 295.488 
L 144.654633 295.488 
L 144.438052 295.488 
L 144.221471 295.488 
L 144.004891 295.488 
L 143.78831 295.488 
L 143.571729 295.488 
L 143.355148 295.488 
L 143.138568 295.488 
L 142.921987 295.488 
L 142.705406 295.488 
L 142.488825 295.488 
L 142.272245 295.488 
L 142.055664 295.488 
L 141.839083 295.488 
L 141.622502 295.488 
L 141.405922 295.488 
L 141.189341 295.488 
L 140.97276 295.488 
L 140.756179 295.488 
L 140.539599 295.488 
L 140.323018 295.488 
L 140.106437 295.488 
L 139.889856 295.488 
L 139.673276 295.488 
L 139.456695 295.488 
L 139.240114 295.488 
L 139.023533 295.488 
L 138.806953 295.488 
L 138.590372 295.488 
L 138.373791 295.488 
L 138.15721 295.488 
L 137.94063 295.488 
L 137.724049 295.488 
L 137.507468 295.488 
L 137.290887 295.488 
L 137.074307 295.488 
L 136.857726 295.488 
L 136.641145 295.488 
L 136.424564 295.488 
L 136.207984 295.488 
L 135.991403 295.488 
L 135.774822 295.488 
L 135.558241 295.488 
L 135.341661 295.488 
L 135.12508 295.488 
L 134.908499 295.488 
L 134.691918 295.488 
L 134.475337 295.488 
L 134.258757 295.488 
L 134.042176 295.488 
L 133.825595 295.488 
L 133.609014 295.488 
L 133.392434 295.488 
L 133.175853 295.488 
L 132.959272 295.488 
L 132.742691 295.488 
L 132.526111 295.488 
L 132.30953 295.488 
L 132.092949 295.488 
L 131.876368 295.488 
L 131.659788 295.488 
L 131.443207 295.488 
L 131.226626 295.488 
L 131.010045 295.488 
L 130.793465 295.488 
L 130.576884 295.488 
L 130.360303 295.488 
L 130.143722 295.488 
L 129.927142 295.488 
L 129.710561 295.488 
L 129.49398 295.488 
L 129.277399 295.488 
L 129.060819 295.488 
L 128.844238 295.488 
L 128.627657 295.488 
L 128.411076 295.488 
L 128.194496 295.488 
L 127.977915 295.488 
L 127.761334 295.488 
L 127.544753 295.488 
L 127.328173 295.488 
L 127.111592 295.488 
L 126.895011 295.488 
L 126.67843 295.488 
L 126.46185 295.488 
L 126.245269 295.488 
L 126.028688 295.488 
L 125.812107 295.488 
L 125.595527 295.488 
L 125.378946 295.488 
L 125.162365 295.488 
L 124.945784 295.488 
L 124.729204 295.488 
L 124.512623 295.488 
L 124.296042 295.488 
L 124.079461 295.488 
L 123.862881 295.488 
L 123.6463 295.488 
L 123.429719 295.488 
L 123.213138 295.488 
L 122.996558 295.488 
L 122.779977 295.488 
L 122.563396 295.488 
L 122.346815 295.488 
L 122.130235 295.488 
L 121.913654 295.488 
L 121.697073 295.488 
L 121.480492 295.488 
L 121.263912 295.488 
L 121.047331 295.488 
L 120.83075 295.488 
L 120.614169 295.488 
L 120.397589 295.488 
L 120.181008 295.488 
L 119.964427 295.488 
L 119.747846 295.488 
L 119.531266 295.488 
L 119.314685 295.488 
L 119.098104 295.488 
L 118.881523 295.488 
L 118.664943 295.488 
L 118.448362 295.488 
L 118.231781 295.488 
L 118.0152 295.488 
L 117.79862 295.488 
L 117.582039 295.488 
L 117.365458 295.488 
L 117.148877 295.488 
L 116.932297 295.488 
L 116.715716 295.488 
L 116.499135 295.488 
L 116.282554 295.488 
L 116.065974 295.488 
L 115.849393 295.488 
L 115.632812 295.488 
L 115.416231 295.488 
L 115.199651 295.488 
L 114.98307 295.488 
L 114.766489 295.488 
L 114.549908 295.488 
L 114.333328 295.488 
L 114.116747 295.488 
L 113.900166 295.488 
L 113.683585 295.488 
L 113.467005 295.488 
L 113.250424 295.488 
L 113.033843 295.488 
L 112.817262 295.488 
L 112.600682 295.488 
L 112.384101 295.488 
L 112.16752 295.488 
L 111.950939 295.488 
L 111.734359 295.488 
L 111.517778 295.488 
L 111.301197 295.488 
L 111.084616 295.488 
L 110.868036 295.488 
L 110.651455 295.488 
L 110.434874 295.488 
L 110.218293 295.488 
L 110.001713 295.488 
L 109.785132 295.488 
L 109.568551 295.488 
L 109.35197 295.488 
L 109.13539 295.488 
L 108.918809 295.488 
L 108.702228 295.488 
L 108.485647 295.488 
L 108.269067 295.488 
L 108.052486 295.488 
L 107.835905 295.488 
L 107.619324 295.488 
L 107.402744 295.488 
L 107.186163 295.488 
L 106.969582 295.488 
L 106.753001 295.488 
L 106.536421 295.488 
L 106.31984 295.488 
L 106.103259 295.488 
L 105.886678 295.488 
L 105.670098 295.488 
L 105.453517 295.488 
L 105.236936 295.488 
L 105.020355 295.488 
L 104.803775 295.488 
L 104.587194 295.488 
L 104.370613 295.488 
L 104.154032 295.488 
L 103.937452 295.488 
L 103.720871 295.488 
L 103.50429 295.488 
L 103.287709 295.488 
L 103.071129 295.488 
L 102.854548 295.488 
L 102.637967 295.488 
L 102.421386 295.488 
L 102.204806 295.488 
L 101.988225 295.488 
L 101.771644 295.488 
L 101.555063 295.488 
L 101.338483 295.488 
L 101.121902 295.488 
L 100.905321 295.488 
L 100.68874 295.488 
L 100.47216 295.488 
L 100.255579 295.488 
L 100.038998 295.488 
L 99.822417 295.488 
L 99.605837 295.488 
L 99.389256 295.488 
L 99.172675 295.488 
L 98.956094 295.488 
L 98.739514 295.488 
L 98.522933 295.488 
L 98.306352 295.488 
L 98.089771 295.488 
L 97.873191 295.488 
L 97.65661 295.488 
L 97.440029 295.488 
L 97.223448 295.488 
L 97.006868 295.488 
L 96.790287 295.488 
L 96.573706 295.488 
L 96.357125 295.488 
L 96.140545 295.488 
L 95.923964 295.488 
L 95.707383 295.488 
L 95.490802 295.488 
L 95.274222 295.488 
L 95.057641 295.488 
L 94.84106 295.488 
L 94.624479 295.488 
L 94.407899 295.488 
L 94.191318 295.488 
L 93.974737 295.488 
L 93.758156 295.488 
L 93.541576 295.488 
L 93.324995 295.488 
L 93.108414 295.488 
L 92.891833 295.488 
L 92.675253 295.488 
L 92.458672 295.488 
L 92.242091 295.488 
L 92.02551 295.488 
L 91.80893 295.488 
L 91.592349 295.488 
L 91.375768 295.488 
L 91.159187 295.488 
L 90.942607 295.488 
L 90.726026 295.488 
L 90.509445 295.488 
L 90.292864 295.488 
L 90.076284 295.488 
L 89.859703 295.488 
L 89.643122 295.488 
L 89.426541 295.488 
L 89.209961 295.488 
L 88.99338 295.488 
L 88.776799 295.488 
L 88.560218 295.488 
L 88.343638 295.488 
L 88.127057 295.488 
L 87.910476 295.488 
L 87.693895 295.488 
L 87.477315 295.488 
L 87.260734 295.488 
L 87.044153 295.488 
L 86.827572 295.488 
L 86.610992 295.488 
L 86.394411 295.488 
L 86.17783 295.488 
L 85.961249 295.488 
L 85.744669 295.488 
L 85.528088 295.488 
L 85.311507 295.488 
L 85.094926 295.488 
L 84.878346 295.488 
L 84.661765 295.488 
L 84.445184 295.488 
L 84.228603 295.488 
L 84.012023 295.488 
L 83.795442 295.488 
L 83.578861 295.488 
L 83.36228 295.488 
L 83.1457 295.488 
L 82.929119 295.488 
L 82.712538 295.488 
L 82.495957 295.488 
L 82.279377 295.488 
L 82.062796 295.488 
L 81.846215 295.488 
L 81.629634 295.488 
L 81.413054 295.488 
L 81.196473 295.488 
L 80.979892 295.488 
L 80.763311 295.488 
L 80.546731 295.488 
L 80.33015 295.488 
L 80.113569 295.488 
L 79.896988 295.488 
L 79.680408 295.488 
L 79.463827 295.488 
L 79.247246 295.488 
L 79.030665 295.488 
L 78.814085 295.488 
L 78.597504 295.488 
L 78.380923 295.488 
L 78.164342 295.488 
L 77.947762 295.488 
L 77.731181 295.488 
L 77.5146 295.488 
L 77.298019 295.488 
L 77.081439 295.488 
L 76.864858 295.488 
L 76.648277 295.488 
L 76.431696 295.488 
L 76.215116 295.488 
L 75.998535 295.488 
L 75.781954 295.488 
L 75.565373 295.488 
L 75.348793 295.488 
L 75.132212 295.488 
L 74.915631 295.488 
L 74.69905 295.488 
L 74.48247 295.488 
L 74.265889 295.488 
L 74.049308 295.488 
L 73.832727 295.488 
z
" clip-path="url(#p53dae0ae52)" style="fill: url(#h82aab04319); stroke: #e6e6fa"/>
   </g>
   <g id="matplotlib.axis_1">
    <g id="xtick_1">
     <g id="line2d_1">
      <path d="M 57.6 307.584 
L 57.6 41.472 
" clip-path="url(#p53dae0ae52)" style="fill: none; stroke: #b0b0b0; stroke-width: 0.8; stroke-linecap: square"/>
     </g>
     <g id="line2d_2">
      <defs>
       <path id="mfdcee4e663" d="M 0 0 
L 0 3.5 
" style="stroke: #000000; stroke-width: 0.8"/>
      </defs>
      <g>
       <use xlink:href="#mfdcee4e663" x="57.6" y="307.584" style="stroke: #000000; stroke-width: 0.8"/>
      </g>
     </g>
     <g id="text_1">
      <!-- 0.05 -->
      <g transform="translate(42.277344 322.182437) scale(0.1 -0.1)">
       <defs>
        <path id="DejaVuSans-2212" d="M 678 2272 
L 4684 2272 
L 4684 1741 
L 678 1741 
L 678 2272 
z
" transform="scale(0.015625)"/>
        <path id="DejaVuSans-30" d="M 2034 4250 
Q 1547 4250 1301 3770 
Q 1056 3291 1056 2328 
Q 1056 1369 1301 889 
Q 1547 409 2034 409 
Q 2525 409 2770 889 
Q 3016 1369 3016 2328 
Q 3016 3291 2770 3770 
Q 2525 4250 2034 4250 
z
M 2034 4750 
Q 2819 4750 3233 4129 
Q 3647 3509 3647 2328 
Q 3647 1150 3233 529 
Q 2819 -91 2034 -91 
Q 1250 -91 836 529 
Q 422 1150 422 2328 
Q 422 3509 836 4129 
Q 1250 4750 2034 4750 
z
" transform="scale(0.015625)"/>
        <path id="DejaVuSans-2e" d="M 684 794 
L 1344 794 
L 1344 0 
L 684 0 
L 684 794 
z
" transform="scale(0.015625)"/>
        <path id="DejaVuSans-35" d="M 691 4666 
L 3169 4666 
L 3169 4134 
L 1269 4134 
L 1269 2991 
Q 1406 3038 1543 3061 
Q 1681 3084 1819 3084 
Q 2600 3084 3056 2656 
Q 3513 2228 3513 1497 
Q 3513 744 3044 326 
Q 2575 -91 1722 -91 
Q 1428 -91 1123 -41 
Q 819 9 494 109 
L 494 744 
Q 775 591 1075 516 
Q 1375 441 1709 441 
Q 2250 441 2565 725 
Q 2881 1009 2881 1497 
Q 2881 1984 2565 2268 
Q 2250 2553 1709 2553 
Q 1456 2553 1204 2497 
Q 953 2441 691 2322 
L 691 4666 
z
" transform="scale(0.015625)"/>
       </defs>
       <use xlink:href="#DejaVuSans-2212"/>
       <use xlink:href="#DejaVuSans-30" x="83.789062"/>
       <use xlink:href="#DejaVuSans-2e" x="147.412109"/>
       <use xlink:href="#DejaVuSans-30" x="179.199219"/>
       <use xlink:href="#DejaVuSans-35" x="242.822266"/>
      </g>
     </g>
    </g>
    <g id="xtick_2">
     <g id="line2d_3">
      <path d="M 122.530909 307.584 
L 122.530909 41.472 
" clip-path="url(#p53dae0ae52)" style="fill: none; stroke: #b0b0b0; stroke-width: 0.8; stroke-linecap: square"/>
     </g>
     <g id="line2d_4">
      <g>
       <use xlink:href="#mfdcee4e663" x="122.530909" y="307.584" style="stroke: #000000; stroke-width: 0.8"/>
      </g>
     </g>
     <g id="text_2">
      <!-- 0.15 -->
      <g transform="translate(111.398097 322.182437) scale(0.1 -0.1)">
       <defs>
        <path id="DejaVuSans-31" d="M 794 531 
L 1825 531 
L 1825 4091 
L 703 3866 
L 703 4441 
L 1819 4666 
L 2450 4666 
L 2450 531 
L 3481 531 
L 3481 0 
L 794 0 
L 794 531 
z
" transform="scale(0.015625)"/>
       </defs>
       <use xlink:href="#DejaVuSans-30"/>
       <use xlink:href="#DejaVuSans-2e" x="63.623047"/>
       <use xlink:href="#DejaVuSans-31" x="95.410156"/>
       <use xlink:href="#DejaVuSans-35" x="159.033203"/>
      </g>
     </g>
    </g>
    <g id="xtick_3">
     <g id="line2d_5">
      <path d="M 187.461818 307.584 
L 187.461818 41.472 
" clip-path="url(#p53dae0ae52)" style="fill: none; stroke: #b0b0b0; stroke-width: 0.8; stroke-linecap: square"/>
     </g>
     <g id="line2d_6">
      <g>
       <use xlink:href="#mfdcee4e663" x="187.461818" y="307.584" style="stroke: #000000; stroke-width: 0.8"/>
      </g>
     </g>
     <g id="text_3">
      <!-- 0.35 -->
      <g transform="translate(176.329006 322.182437) scale(0.1 -0.1)">
       <defs>
        <path id="DejaVuSans-33" d="M 2597 2516 
Q 3050 2419 3304 2112 
Q 3559 1806 3559 1356 
Q 3559 666 3084 287 
Q 2609 -91 1734 -91 
Q 1441 -91 1130 -33 
Q 819 25 488 141 
L 488 750 
Q 750 597 1062 519 
Q 1375 441 1716 441 
Q 2309 441 2620 675 
Q 2931 909 2931 1356 
Q 2931 1769 2642 2001 
Q 2353 2234 1838 2234 
L 1294 2234 
L 1294 2753 
L 1863 2753 
Q 2328 2753 2575 2939 
Q 2822 3125 2822 3475 
Q 2822 3834 2567 4026 
Q 2313 4219 1838 4219 
Q 1578 4219 1281 4162 
Q 984 4106 628 3988 
L 628 4550 
Q 988 4650 1302 4700 
Q 1616 4750 1894 4750 
Q 2613 4750 3031 4423 
Q 3450 4097 3450 3541 
Q 3450 3153 3228 2886 
Q 3006 2619 2597 2516 
z
" transform="scale(0.015625)"/>
       </defs>
       <use xlink:href="#DejaVuSans-30"/>
       <use xlink:href="#DejaVuSans-2e" x="63.623047"/>
       <use xlink:href="#DejaVuSans-33" x="95.410156"/>
       <use xlink:href="#DejaVuSans-35" x="159.033203"/>
      </g>
     </g>
    </g>
    <g id="xtick_4">
     <g id="line2d_7">
      <path d="M 252.392727 307.584 
L 252.392727 41.472 
" clip-path="url(#p53dae0ae52)" style="fill: none; stroke: #b0b0b0; stroke-width: 0.8; stroke-linecap: square"/>
     </g>
     <g id="line2d_8">
      <g>
       <use xlink:href="#mfdcee4e663" x="252.392727" y="307.584" style="stroke: #000000; stroke-width: 0.8"/>
      </g>
     </g>
     <g id="text_4">
      <!-- 0.55 -->
      <g transform="translate(241.259915 322.182437) scale(0.1 -0.1)">
       <use xlink:href="#DejaVuSans-30"/>
       <use xlink:href="#DejaVuSans-2e" x="63.623047"/>
       <use xlink:href="#DejaVuSans-35" x="95.410156"/>
       <use xlink:href="#DejaVuSans-35" x="159.033203"/>
      </g>
     </g>
    </g>
    <g id="xtick_5">
     <g id="line2d_9">
      <path d="M 317.323636 307.584 
L 317.323636 41.472 
" clip-path="url(#p53dae0ae52)" style="fill: none; stroke: #b0b0b0; stroke-width: 0.8; stroke-linecap: square"/>
     </g>
     <g id="line2d_10">
      <g>
       <use xlink:href="#mfdcee4e663" x="317.323636" y="307.584" style="stroke: #000000; stroke-width: 0.8"/>
      </g>
     </g>
     <g id="text_5">
      <!-- 0.75 -->
      <g transform="translate(306.190824 322.182437) scale(0.1 -0.1)">
       <defs>
        <path id="DejaVuSans-37" d="M 525 4666 
L 3525 4666 
L 3525 4397 
L 1831 0 
L 1172 0 
L 2766 4134 
L 525 4134 
L 525 4666 
z
" transform="scale(0.015625)"/>
       </defs>
       <use xlink:href="#DejaVuSans-30"/>
       <use xlink:href="#DejaVuSans-2e" x="63.623047"/>
       <use xlink:href="#DejaVuSans-37" x="95.410156"/>
       <use xlink:href="#DejaVuSans-35" x="159.033203"/>
      </g>
     </g>
    </g>
    <g id="xtick_6">
     <g id="line2d_11">
      <path d="M 382.254545 307.584 
L 382.254545 41.472 
" clip-path="url(#p53dae0ae52)" style="fill: none; stroke: #b0b0b0; stroke-width: 0.8; stroke-linecap: square"/>
     </g>
     <g id="line2d_12">
      <g>
       <use xlink:href="#mfdcee4e663" x="382.254545" y="307.584" style="stroke: #000000; stroke-width: 0.8"/>
      </g>
     </g>
     <g id="text_6">
      <!-- 0.95 -->
      <g transform="translate(371.121733 322.182437) scale(0.1 -0.1)">
       <defs>
        <path id="DejaVuSans-39" d="M 703 97 
L 703 672 
Q 941 559 1184 500 
Q 1428 441 1663 441 
Q 2288 441 2617 861 
Q 2947 1281 2994 2138 
Q 2813 1869 2534 1725 
Q 2256 1581 1919 1581 
Q 1219 1581 811 2004 
Q 403 2428 403 3163 
Q 403 3881 828 4315 
Q 1253 4750 1959 4750 
Q 2769 4750 3195 4129 
Q 3622 3509 3622 2328 
Q 3622 1225 3098 567 
Q 2575 -91 1691 -91 
Q 1453 -91 1209 -44 
Q 966 3 703 97 
z
M 1959 2075 
Q 2384 2075 2632 2365 
Q 2881 2656 2881 3163 
Q 2881 3666 2632 3958 
Q 2384 4250 1959 4250 
Q 1534 4250 1286 3958 
Q 1038 3666 1038 3163 
Q 1038 2656 1286 2365 
Q 1534 2075 1959 2075 
z
" transform="scale(0.015625)"/>
       </defs>
       <use xlink:href="#DejaVuSans-30"/>
       <use xlink:href="#DejaVuSans-2e" x="63.623047"/>
       <use xlink:href="#DejaVuSans-39" x="95.410156"/>
       <use xlink:href="#DejaVuSans-35" x="159.033203"/>
      </g>
     </g>
    </g>
    <g id="text_7">
     <!-- Feature 12537 -->
     <g transform="translate(192.497813 337.38025) scale(0.12 -0.12)">
      <defs>
       <path id="DejaVuSans-46" d="M 628 4666 
L 3309 4666 
L 3309 4134 
L 1259 4134 
L 1259 2759 
L 3109 2759 
L 3109 2228 
L 1259 2228 
L 1259 0 
L 628 0 
L 628 4666 
z
" transform="scale(0.015625)"/>
       <path id="DejaVuSans-65" d="M 3597 1894 
L 3597 1613 
L 953 1613 
Q 991 1019 1311 708 
Q 1631 397 2203 397 
Q 2534 397 2845 478 
Q 3156 559 3463 722 
L 3463 178 
Q 3153 47 2828 -22 
Q 2503 -91 2169 -91 
Q 1331 -91 842 396 
Q 353 884 353 1716 
Q 353 2575 817 3079 
Q 1281 3584 2069 3584 
Q 2775 3584 3186 3129 
Q 3597 2675 3597 1894 
z
M 3022 2063 
Q 3016 2534 2758 2815 
Q 2500 3097 2075 3097 
Q 1594 3097 1305 2825 
Q 1016 2553 972 2059 
L 3022 2063 
z
" transform="scale(0.015625)"/>
       <path id="DejaVuSans-61" d="M 2194 1759 
Q 1497 1759 1228 1600 
Q 959 1441 959 1056 
Q 959 750 1161 570 
Q 1363 391 1709 391 
Q 2188 391 2477 730 
Q 2766 1069 2766 1631 
L 2766 1759 
L 2194 1759 
z
M 3341 1997 
L 3341 0 
L 2766 0 
L 2766 531 
Q 2569 213 2275 61 
Q 1981 -91 1556 -91 
Q 1019 -91 701 211 
Q 384 513 384 1019 
Q 384 1609 779 1909 
Q 1175 2209 1959 2209 
L 2766 2209 
L 2766 2266 
Q 2766 2663 2505 2880 
Q 2244 3097 1772 3097 
Q 1472 3097 1187 3025 
Q 903 2953 641 2809 
L 641 3341 
Q 956 3463 1253 3523 
Q 1550 3584 1831 3584 
Q 2591 3584 2966 3190 
Q 3341 2797 3341 1997 
z
" transform="scale(0.015625)"/>
       <path id="DejaVuSans-74" d="M 1172 4494 
L 1172 3500 
L 2356 3500 
L 2356 3053 
L 1172 3053 
L 1172 1153 
Q 1172 725 1289 603 
Q 1406 481 1766 481 
L 2356 481 
L 2356 0 
L 1766 0 
Q 1100 0 847 248 
Q 594 497 594 1153 
L 594 3053 
L 172 3053 
L 172 3500 
L 594 3500 
L 594 4494 
L 1172 4494 
z
" transform="scale(0.015625)"/>
       <path id="DejaVuSans-75" d="M 544 1381 
L 544 3500 
L 1119 3500 
L 1119 1403 
Q 1119 906 1312 657 
Q 1506 409 1894 409 
Q 2359 409 2629 706 
Q 2900 1003 2900 1516 
L 2900 3500 
L 3475 3500 
L 3475 0 
L 2900 0 
L 2900 538 
Q 2691 219 2414 64 
Q 2138 -91 1772 -91 
Q 1169 -91 856 284 
Q 544 659 544 1381 
z
M 1991 3584 
L 1991 3584 
z
" transform="scale(0.015625)"/>
       <path id="DejaVuSans-72" d="M 2631 2963 
Q 2534 3019 2420 3045 
Q 2306 3072 2169 3072 
Q 1681 3072 1420 2755 
Q 1159 2438 1159 1844 
L 1159 0 
L 581 0 
L 581 3500 
L 1159 3500 
L 1159 2956 
Q 1341 3275 1631 3429 
Q 1922 3584 2338 3584 
Q 2397 3584 2469 3576 
Q 2541 3569 2628 3553 
L 2631 2963 
z
" transform="scale(0.015625)"/>
       <path id="DejaVuSans-20" transform="scale(0.015625)"/>
       <path id="DejaVuSans-32" d="M 1228 531 
L 3431 531 
L 3431 0 
L 469 0 
L 469 531 
Q 828 903 1448 1529 
Q 2069 2156 2228 2338 
Q 2531 2678 2651 2914 
Q 2772 3150 2772 3378 
Q 2772 3750 2511 3984 
Q 2250 4219 1831 4219 
Q 1534 4219 1204 4116 
Q 875 4013 500 3803 
L 500 4441 
Q 881 4594 1212 4672 
Q 1544 4750 1819 4750 
Q 2544 4750 2975 4387 
Q 3406 4025 3406 3419 
Q 3406 3131 3298 2873 
Q 3191 2616 2906 2266 
Q 2828 2175 2409 1742 
Q 1991 1309 1228 531 
z
" transform="scale(0.015625)"/>
      </defs>
      <use xlink:href="#DejaVuSans-46"/>
      <use xlink:href="#DejaVuSans-65" x="52.019531"/>
      <use xlink:href="#DejaVuSans-61" x="113.542969"/>
      <use xlink:href="#DejaVuSans-74" x="174.822266"/>
      <use xlink:href="#DejaVuSans-75" x="214.03125"/>
      <use xlink:href="#DejaVuSans-72" x="277.410156"/>
      <use xlink:href="#DejaVuSans-65" x="316.273438"/>
      <use xlink:href="#DejaVuSans-20" x="377.796875"/>
      <use xlink:href="#DejaVuSans-31" x="409.583984"/>
      <use xlink:href="#DejaVuSans-32" x="473.207031"/>
      <use xlink:href="#DejaVuSans-35" x="536.830078"/>
      <use xlink:href="#DejaVuSans-33" x="600.453125"/>
      <use xlink:href="#DejaVuSans-37" x="664.076172"/>
     </g>
    </g>
   </g>
   <g id="matplotlib.axis_2">
    <g id="ytick_1">
     <g id="line2d_13">
      <path d="M 57.6 295.488 
L 414.72 295.488 
" clip-path="url(#p53dae0ae52)" style="fill: none; stroke: #b0b0b0; stroke-width: 0.8; stroke-linecap: square"/>
     </g>
     <g id="line2d_14">
      <defs>
       <path id="m70d944179e" d="M 0 0 
L -3.5 0 
" style="stroke: #000000; stroke-width: 0.8"/>
      </defs>
      <g>
       <use xlink:href="#m70d944179e" x="57.6" y="295.488" style="stroke: #000000; stroke-width: 0.8"/>
      </g>
     </g>
     <g id="text_8">
      <!-- 0 -->
      <g transform="translate(44.2375 299.287219) scale(0.1 -0.1)">
       <use xlink:href="#DejaVuSans-30"/>
      </g>
     </g>
    </g>
    <g id="ytick_2">
     <g id="line2d_15">
      <path d="M 57.6 237.287146 
L 414.72 237.287146 
" clip-path="url(#p53dae0ae52)" style="fill: none; stroke: #b0b0b0; stroke-width: 0.8; stroke-linecap: square"/>
     </g>
     <g id="line2d_16">
      <g>
       <use xlink:href="#m70d944179e" x="57.6" y="237.287146" style="stroke: #000000; stroke-width: 0.8"/>
      </g>
     </g>
     <g id="text_9">
      <!-- 2 -->
      <g transform="translate(44.2375 241.086364) scale(0.1 -0.1)">
       <use xlink:href="#DejaVuSans-32"/>
      </g>
     </g>
    </g>
    <g id="ytick_3">
     <g id="line2d_17">
      <path d="M 57.6 179.086291 
L 414.72 179.086291 
" clip-path="url(#p53dae0ae52)" style="fill: none; stroke: #b0b0b0; stroke-width: 0.8; stroke-linecap: square"/>
     </g>
     <g id="line2d_18">
      <g>
       <use xlink:href="#m70d944179e" x="57.6" y="179.086291" style="stroke: #000000; stroke-width: 0.8"/>
      </g>
     </g>
     <g id="text_10">
      <!-- 4 -->
      <g transform="translate(44.2375 182.88551) scale(0.1 -0.1)">
       <defs>
        <path id="DejaVuSans-34" d="M 2419 4116 
L 825 1625 
L 2419 1625 
L 2419 4116 
z
M 2253 4666 
L 3047 4666 
L 3047 1625 
L 3713 1625 
L 3713 1100 
L 3047 1100 
L 3047 0 
L 2419 0 
L 2419 1100 
L 313 1100 
L 313 1709 
L 2253 4666 
z
" transform="scale(0.015625)"/>
       </defs>
       <use xlink:href="#DejaVuSans-34"/>
      </g>
     </g>
    </g>
    <g id="ytick_4">
     <g id="line2d_19">
      <path d="M 57.6 120.885437 
L 414.72 120.885437 
" clip-path="url(#p53dae0ae52)" style="fill: none; stroke: #b0b0b0; stroke-width: 0.8; stroke-linecap: square"/>
     </g>
     <g id="line2d_20">
      <g>
       <use xlink:href="#m70d944179e" x="57.6" y="120.885437" style="stroke: #000000; stroke-width: 0.8"/>
      </g>
     </g>
     <g id="text_11">
      <!-- 6 -->
      <g transform="translate(44.2375 124.684656) scale(0.1 -0.1)">
       <defs>
        <path id="DejaVuSans-36" d="M 2113 2584 
Q 1688 2584 1439 2293 
Q 1191 2003 1191 1497 
Q 1191 994 1439 701 
Q 1688 409 2113 409 
Q 2538 409 2786 701 
Q 3034 994 3034 1497 
Q 3034 2003 2786 2293 
Q 2538 2584 2113 2584 
z
M 3366 4563 
L 3366 3988 
Q 3128 4100 2886 4159 
Q 2644 4219 2406 4219 
Q 1781 4219 1451 3797 
Q 1122 3375 1075 2522 
Q 1259 2794 1537 2939 
Q 1816 3084 2150 3084 
Q 2853 3084 3261 2657 
Q 3669 2231 3669 1497 
Q 3669 778 3244 343 
Q 2819 -91 2113 -91 
Q 1303 -91 875 529 
Q 447 1150 447 2328 
Q 447 3434 972 4092 
Q 1497 4750 2381 4750 
Q 2619 4750 2861 4703 
Q 3103 4656 3366 4563 
z
" transform="scale(0.015625)"/>
       </defs>
       <use xlink:href="#DejaVuSans-36"/>
      </g>
     </g>
    </g>
    <g id="ytick_5">
     <g id="line2d_21">
      <path d="M 57.6 62.684583 
L 414.72 62.684583 
" clip-path="url(#p53dae0ae52)" style="fill: none; stroke: #b0b0b0; stroke-width: 0.8; stroke-linecap: square"/>
     </g>
     <g id="line2d_22">
      <g>
       <use xlink:href="#m70d944179e" x="57.6" y="62.684583" style="stroke: #000000; stroke-width: 0.8"/>
      </g>
     </g>
     <g id="text_12">
      <!-- 8 -->
      <g transform="translate(44.2375 66.483802) scale(0.1 -0.1)">
       <defs>
        <path id="DejaVuSans-38" d="M 2034 2216 
Q 1584 2216 1326 1975 
Q 1069 1734 1069 1313 
Q 1069 891 1326 650 
Q 1584 409 2034 409 
Q 2484 409 2743 651 
Q 3003 894 3003 1313 
Q 3003 1734 2745 1975 
Q 2488 2216 2034 2216 
z
M 1403 2484 
Q 997 2584 770 2862 
Q 544 3141 544 3541 
Q 544 4100 942 4425 
Q 1341 4750 2034 4750 
Q 2731 4750 3128 4425 
Q 3525 4100 3525 3541 
Q 3525 3141 3298 2862 
Q 3072 2584 2669 2484 
Q 3125 2378 3379 2068 
Q 3634 1759 3634 1313 
Q 3634 634 3220 271 
Q 2806 -91 2034 -91 
Q 1263 -91 848 271 
Q 434 634 434 1313 
Q 434 1759 690 2068 
Q 947 2378 1403 2484 
z
M 1172 3481 
Q 1172 3119 1398 2916 
Q 1625 2713 2034 2713 
Q 2441 2713 2670 2916 
Q 2900 3119 2900 3481 
Q 2900 3844 2670 4047 
Q 2441 4250 2034 4250 
Q 1625 4250 1398 4047 
Q 1172 3844 1172 3481 
z
" transform="scale(0.015625)"/>
       </defs>
       <use xlink:href="#DejaVuSans-38"/>
      </g>
     </g>
    </g>
    <g id="text_13">
     <!-- 1e15 -->
     <g transform="translate(57.6 38.472) scale(0.1 -0.1)">
      <use xlink:href="#DejaVuSans-31"/>
      <use xlink:href="#DejaVuSans-65" x="63.623047"/>
      <use xlink:href="#DejaVuSans-31" x="125.146484"/>
      <use xlink:href="#DejaVuSans-35" x="188.769531"/>
     </g>
    </g>
   </g>
   <g id="line2d_23">
    <path d="M 73.832727 295.488 
L 398.487273 295.488 
L 398.487273 295.488 
" clip-path="url(#p53dae0ae52)" style="fill: none; stroke: #1f77b4; stroke-opacity: 0.7; stroke-width: 1.5; stroke-linecap: square"/>
   </g>
   <g id="line2d_24">
    <path d="M 73.832727 295.488 
L 398.487273 295.488 
L 398.487273 295.488 
" clip-path="url(#p53dae0ae52)" style="fill: none; stroke: #ff7f0e; stroke-opacity: 0.7; stroke-width: 1.5; stroke-linecap: square"/>
   </g>
   <g id="line2d_25">
    <path d="M 73.832727 53.568 
L 74.049308 295.488 
L 398.487273 295.488 
L 398.487273 295.488 
" clip-path="url(#p53dae0ae52)" style="fill: none; stroke: #2ca02c; stroke-opacity: 0.7; stroke-width: 1.5; stroke-linecap: square"/>
   </g>
   <g id="line2d_26">
    <path d="M 73.832727 295.488 
L 398.487273 295.488 
L 398.487273 295.488 
" clip-path="url(#p53dae0ae52)" style="fill: none; stroke: #d62728; stroke-opacity: 0.7; stroke-width: 1.5; stroke-linecap: square"/>
   </g>
   <g id="line2d_27">
    <path d="M 73.832727 295.488 
L 398.487273 295.488 
L 398.487273 295.488 
" clip-path="url(#p53dae0ae52)" style="fill: none; stroke: #9467bd; stroke-opacity: 0.7; stroke-width: 1.5; stroke-linecap: square"/>
   </g>
   <g id="patch_3">
    <path d="M 57.6 307.584 
L 57.6 41.472 
" style="fill: none; stroke: #000000; stroke-width: 0.8; stroke-linejoin: miter; stroke-linecap: square"/>
   </g>
   <g id="patch_4">
    <path d="M 414.72 307.584 
L 414.72 41.472 
" style="fill: none; stroke: #000000; stroke-width: 0.8; stroke-linejoin: miter; stroke-linecap: square"/>
   </g>
   <g id="patch_5">
    <path d="M 57.6 307.584 
L 414.72 307.584 
" style="fill: none; stroke: #000000; stroke-width: 0.8; stroke-linejoin: miter; stroke-linecap: square"/>
   </g>
   <g id="patch_6">
    <path d="M 57.6 41.472 
L 414.72 41.472 
" style="fill: none; stroke: #000000; stroke-width: 0.8; stroke-linejoin: miter; stroke-linecap: square"/>
   </g>
   <g id="legend_1">
    <g id="patch_7">
     <path d="M 210.528 158.6745 
L 265.77 158.6745 
Q 268.65 158.6745 268.65 155.7945 
L 268.65 51.552 
Q 268.65 48.672 265.77 48.672 
L 210.528 48.672 
Q 207.648 48.672 207.648 51.552 
L 207.648 155.7945 
Q 207.648 158.6745 210.528 158.6745 
z
" style="fill: #ffffff; opacity: 0.8; stroke: #cccccc; stroke-linejoin: miter"/>
    </g>
    <g id="line2d_28">
     <path d="M 213.408 60.33375 
L 227.808 60.33375 
L 242.208 60.33375 
" style="fill: none; stroke: #1f77b4; stroke-opacity: 0.7; stroke-width: 1.5; stroke-linecap: square"/>
    </g>
    <g id="text_14">
     <!-- 0 -->
     <g transform="translate(253.728 65.37375) scale(0.144 -0.144)">
      <use xlink:href="#DejaVuSans-30"/>
     </g>
    </g>
    <g id="line2d_29">
     <path d="M 213.408 81.47025 
L 227.808 81.47025 
L 242.208 81.47025 
" style="fill: none; stroke: #ff7f0e; stroke-opacity: 0.7; stroke-width: 1.5; stroke-linecap: square"/>
    </g>
    <g id="text_15">
     <!-- 1 -->
     <g transform="translate(253.728 86.51025) scale(0.144 -0.144)">
      <use xlink:href="#DejaVuSans-31"/>
     </g>
    </g>
    <g id="line2d_30">
     <path d="M 213.408 102.60675 
L 227.808 102.60675 
L 242.208 102.60675 
" style="fill: none; stroke: #2ca02c; stroke-opacity: 0.7; stroke-width: 1.5; stroke-linecap: square"/>
    </g>
    <g id="text_16">
     <!-- 2 -->
     <g transform="translate(253.728 107.64675) scale(0.144 -0.144)">
      <use xlink:href="#DejaVuSans-32"/>
     </g>
    </g>
    <g id="line2d_31">
     <path d="M 213.408 123.74325 
L 227.808 123.74325 
L 242.208 123.74325 
" style="fill: none; stroke: #d62728; stroke-opacity: 0.7; stroke-width: 1.5; stroke-linecap: square"/>
    </g>
    <g id="text_17">
     <!-- 3 -->
     <g transform="translate(253.728 128.78325) scale(0.144 -0.144)">
      <use xlink:href="#DejaVuSans-33"/>
     </g>
    </g>
    <g id="line2d_32">
     <path d="M 213.408 144.87975 
L 227.808 144.87975 
L 242.208 144.87975 
" style="fill: none; stroke: #9467bd; stroke-opacity: 0.7; stroke-width: 1.5; stroke-linecap: square"/>
    </g>
    <g id="text_18">
     <!-- 4 -->
     <g transform="translate(253.728 149.91975) scale(0.144 -0.144)">
      <use xlink:href="#DejaVuSans-34"/>
     </g>
    </g>
   </g>
  </g>
 </g>
 <defs>
  <clipPath id="p53dae0ae52">
   <rect x="57.6" y="41.472" width="357.12" height="266.112"/>
  </clipPath>
 </defs>
 <defs>
  <pattern id="h82aab04319" patternUnits="userSpaceOnUse" x="0" y="0" width="72" height="72">
   <rect x="0" y="0" width="73" height="73" fill="#d3d3d3"/>
   <path d="M -36 36 
L 36 -36 
M -32 40 
L 40 -32 
M -28 44 
L 44 -28 
M -24 48 
L 48 -24 
M -20 52 
L 52 -20 
M -16 56 
L 56 -16 
M -12 60 
L 60 -12 
M -8 64 
L 64 -8 
M -4 68 
L 68 -4 
M 0 72 
L 72 0 
M 4 76 
L 76 4 
M 8 80 
L 80 8 
M 12 84 
L 84 12 
M 16 88 
L 88 16 
M 20 92 
L 92 20 
M 24 96 
L 96 24 
M 28 100 
L 100 28 
M 32 104 
L 104 32 
M 36 108 
L 108 36 
M -36 36 
L 36 108 
M -32 32 
L 40 104 
M -28 28 
L 44 100 
M -24 24 
L 48 96 
M -20 20 
L 52 92 
M -16 16 
L 56 88 
M -12 12 
L 60 84 
M -8 8 
L 64 80 
M -4 4 
L 68 76 
M 0 0 
L 72 72 
M 4 -4 
L 76 68 
M 8 -8 
L 80 64 
M 12 -12 
L 84 60 
M 16 -16 
L 88 56 
M 20 -20 
L 92 52 
M 24 -24 
L 96 48 
M 28 -28 
L 100 44 
M 32 -32 
L 104 40 
M 36 -36 
L 108 36 
" style="fill: #e6e6fa; stroke: #e6e6fa; stroke-width: 1.0; stroke-linecap: butt; stroke-linejoin: miter"/>
  </pattern>
 </defs>
</svg>
