<?xml version="1.0" encoding="utf-8"?>
<!-- Generator: Adobe Illustrator 16.0.0, SVG Export Plug-In . SVG Version: 6.00 Build 0)  -->
<!DOCTYPE svg PUBLIC "-//W3C//DTD SVG 1.1//EN" "http://www.w3.org/Graphics/SVG/1.1/DTD/svg11.dtd">
<svg version="1.1" id="Ebene_1" xmlns="http://www.w3.org/2000/svg" xmlns:xlink="http://www.w3.org/1999/xlink" x="0px" y="0px"
	 width="108.29px" height="23.667px" viewBox="0 15.418 108.29 23.667" enable-background="new 0 15.418 108.29 23.667"
	 xml:space="preserve">
<rect x="0.04" y="15.418" fill="#EDEDED" width="108.25" height="23.667"/>
<path fill="#8BBDE7" stroke="#2A4A9A" stroke-miterlimit="10" d="M66.915,36.86H0.04c7.875-0.625,12.875-4.75,19.125-8.875
	c3-2,6.125-4.375,9.75-4.75c3.125-0.25,7,0.625,10,1.625C48.29,27.86,56.665,37.36,66.915,36.86z"/>
<path opacity="0.7" fill="#FFD132" stroke="#F39200" stroke-miterlimit="10" enable-background="new    " d="M44.812,36.911H7.04
	c3.875-0.375,6.5-1.875,9.875-3.625c2.625-1.375,5.125-3.25,8.125-3.625c7-0.875,11,3.875,17,6.5
	c1.006,0.423,2.168,0.734,3.373,0.943"/>
<path opacity="0.7" fill="#95C11F" stroke="#038C38" stroke-miterlimit="10" enable-background="new    " d="M70.915,36.786h-52.25
	c1.875-1.125,3.125-2.75,5.375-2.625c2,0.125,3,1.5,4.5,2.375c3.75,2.125,6.125-2.875,7.5-5.625c2.375-4.75,6.5-14.625,13.75-12.75
	c2.75,0.75,2.875,3.875,3.875,6c1.125,2.375,2.75,4.75,4.375,6.875c3.002,3.778,7.881,4.495,12.353,5.749"/>
<text transform="matrix(1 0 0 1 61.9556 30.0354)" font-family="'CMUConcrete-Roman'" font-size="12">PDESeg</text>
</svg>
